<svg height="650" width="600" xmlns="http://www.w3.org/2000/svg"
     style="font-family:&quot;lucida grande&quot;, &quot;lucida sans unicode&quot;, arial, helvetica, sans-serif;font-size:12px;"
     version="1.1">
    <desc>Created with Highstock 4.2.5</desc>
    <defs>
        <clipPath id="highcharts-34">
            <rect height="459" width="580" y="0" x="0"></rect>
        </clipPath>
        <clipPath id="highcharts-36">
            <rect height="459" width="580" y="0" x="0"></rect>
        </clipPath>
        <clipPath id="highcharts-37">
            <rect height="40" width="552" y="0" x="0"></rect>
        </clipPath>
    </defs>
    <rect class=" highcharts-background" fill="#FFFFFF" height="650" width="600" y="0" x="0"></rect>
    <g transform="translate(10,622)" class="highcharts-scrollbar">
        <rect width="580" height="14" ry="0" rx="0" stroke-width="1" stroke="#eeeeee" fill="#eeeeee" y="-0.5"
              x="0"></rect>
        <rect width="186" x="14.5" ry="0" rx="0" stroke-width="1" stroke="#bfc8d1" fill="#bfc8d1" height="14"
              y="-0.5"></rect>
        <path d="M 104 3.5 L 104 9.333333333333334 M 107 3.5 L 107 9.333333333333334 M 110 3.5 L 110 9.333333333333334"
              visibility="visible" stroke-width="1" stroke="#666" fill="none"></path>
        <g>
            <rect fill="#ebe7e8" stroke-width="1" stroke="#bbb" height="14" width="14" y="-0.5" x="-0.5"></rect>
            <path d="M 8 4 L 8 10 5 7" fill="#666"></path>
        </g>
        <g transform="translate(566,0)">
            <rect fill="#ebe7e8" stroke-width="1" stroke="#bbb" height="14" width="14" y="-0.5" x="-0.5"></rect>
            <path d="M 6 4 L 6 10 9 7" fill="#666"></path>
        </g>
    </g>
    <g transform="translate(0,42)" class="highcharts-range-selector-buttons">
        <text style="color:#666;fill:#666;" y="15" x="10">Zoom</text>
        <g transform="translate(46,0)" style="cursor:pointer;text-align:center;" states="[object Object]"
           class="highcharts-button">
            <rect ry="0" rx="0" fill="#f7f7f7" height="22" width="54" y="0" x="0"></rect>
            <text y="14" style="font-weight:normal;color:#444;fill:#444;" x="16.5">1op</text>
        </g>
        <g transform="translate(105,0)" style="cursor:pointer;text-align:center;" states="[object Object]"
           class="highcharts-button">
            <rect ry="0" rx="0" fill="#f7f7f7" height="22" width="54" y="0" x="0"></rect>
            <text y="14" style="font-weight:normal;color:#444;fill:#444;" x="13">10op</text>
        </g>
        <g transform="translate(164,0)" style="cursor:pointer;text-align:center;" states="[object Object]"
           class="highcharts-button">
            <rect ry="0" rx="0" fill="#f7f7f7" height="22" width="54" y="0" x="0"></rect>
            <text y="14" style="font-weight:normal;color:#444;fill:#444;" x="2.5">10000op</text>
        </g>
        <g transform="translate(223,0)" style="cursor:pointer;text-align:center;" states="[object Object]"
           class="highcharts-button">
            <rect ry="0" rx="0" fill="#f7f7f7" height="22" width="54" y="0" x="0"></rect>
            <text y="14" style="font-weight:normal;color:#444;fill:#444;" x="2.5">50000op</text>
        </g>
        <g transform="translate(282,0)" style="cursor:pointer;text-align:center;" states="[object Object]"
           class="highcharts-button">
            <rect ry="0" rx="0" fill="#f7f7f7" height="22" width="54" y="0" x="0"></rect>
            <text y="14" style="font-weight:normal;color:#444;fill:#444;" x="20">All</text>
        </g>
    </g>
    <g visibility="hidden" transform="translate(333,42)" class="highcharts-input-group">
        <g transform="translate(0,0)" style="fill:#666;">
            <text y="14"
                  style="font-size:12px;font-family:&quot;lucida grande&quot;, &quot;lucida sans unicode&quot;, arial, helvetica, sans-serif;color:#666;fill:#666;"
                  x="2">From
            </text>
        </g>
        <g transform="translate(37,0)" style="text-align:center;">
            <rect stroke-width="1" stroke="silver" fill="none" height="21" width="94" y="0.5" x="0.5"></rect>
            <text y="14"
                  style="font-size:12px;font-family:&quot;lucida grande&quot;, &quot;lucida sans unicode&quot;, arial, helvetica, sans-serif;color:#444;fill:#444;"
                  x="15">
                <tspan>Jan 1, 1970</tspan>
            </text>
        </g>
        <g transform="translate(141,0)" style="fill:#666;">
            <text y="14"
                  style="font-size:12px;font-family:&quot;lucida grande&quot;, &quot;lucida sans unicode&quot;, arial, helvetica, sans-serif;color:#666;fill:#666;"
                  x="2">To
            </text>
        </g>
        <g transform="translate(163,0)" style="text-align:center;">
            <rect stroke-width="1" stroke="silver" fill="none" height="21" width="94" y="0.5" x="0.5"></rect>
            <text y="14"
                  style="font-size:12px;font-family:&quot;lucida grande&quot;, &quot;lucida sans unicode&quot;, arial, helvetica, sans-serif;color:#444;fill:#444;"
                  x="15">
                <tspan>Jan 1, 1970</tspan>
            </text>
        </g>
    </g>
    <g class="highcharts-grid"></g>
    <g class="highcharts-grid">
        <path opacity="1" stroke-width="1" stroke="#EEE" d="M 25.5 581 L 25.5 621" fill="none"></path>
        <path opacity="1" stroke-width="1" stroke="#EEE" d="M 208.5 581 L 208.5 621" fill="none"></path>
        <path opacity="1" stroke-width="1" stroke="#EEE" d="M 392.5 581 L 392.5 621" fill="none"></path>
    </g>
    <g class="highcharts-grid">
        <path opacity="1" stroke-width="1" stroke="#D8D8D8" d="M 10 536.5 L 590 536.5" fill="none"></path>
        <path opacity="1" stroke-width="1" stroke="#D8D8D8" d="M 10 490.5 L 590 490.5" fill="none"></path>
        <path opacity="1" stroke-width="1" stroke="#D8D8D8" d="M 10 444.5 L 590 444.5" fill="none"></path>
        <path opacity="1" stroke-width="1" stroke="#D8D8D8" d="M 10 398.5 L 590 398.5" fill="none"></path>
        <path opacity="1" stroke-width="1" stroke="#D8D8D8" d="M 10 352.5 L 590 352.5" fill="none"></path>
        <path opacity="1" stroke-width="1" stroke="#D8D8D8" d="M 10 307.5 L 590 307.5" fill="none"></path>
        <path opacity="1" stroke-width="1" stroke="#D8D8D8" d="M 10 261.5 L 590 261.5" fill="none"></path>
        <path opacity="1" stroke-width="1" stroke="#D8D8D8" d="M 10 215.5 L 590 215.5" fill="none"></path>
        <path opacity="1" stroke-width="1" stroke="#D8D8D8" d="M 10 169.5 L 590 169.5" fill="none"></path>
        <path opacity="1" stroke-width="1" stroke="#D8D8D8" d="M 10 123.5 L 590 123.5" fill="none"></path>
        <path opacity="1" stroke-width="1" stroke="#D8D8D8" d="M 10 76.5 L 590 76.5" fill="none"></path>
    </g>
    <g class="highcharts-grid"></g>
    <g class="highcharts-axis">
        <path opacity="1" stroke-width="1" stroke="#C0D0E0" d="M 26.5 536 L 26.5 546" fill="none"></path>
        <path opacity="1" stroke-width="1" stroke="#C0D0E0" d="M 583.5 536 L 583.5 546" fill="none"></path>
        <path opacity="1" stroke-width="1" stroke="#C0D0E0" d="M 137.5 536 L 137.5 546" fill="none"></path>
        <path opacity="1" stroke-width="1" stroke="#C0D0E0" d="M 249.5 536 L 249.5 546" fill="none"></path>
        <path opacity="1" stroke-width="1" stroke="#C0D0E0" d="M 360.5 536 L 360.5 546" fill="none"></path>
        <path opacity="1" stroke-width="1" stroke="#C0D0E0" d="M 472.5 536 L 472.5 546" fill="none"></path>
        <path stroke-width="1" stroke="#C0D0E0" d="M 10 536.5 L 590 536.5" fill="none"></path>
    </g>
    <g class="highcharts-axis"></g>
    <g class="highcharts-axis"></g>
    <g class="highcharts-axis"></g>
    <g class="highcharts-series-group">
        <g clip-path="url(#highcharts-34)" transform="translate(10,77) scale(1 1)"
           class="highcharts-series highcharts-series-0">
            <path stroke-width="1" stroke="black"
                  d="M 2.5 410.5 L 2.5 409.5 L 8.5 409.5 L 8.5 410.5 Z M 5.5 409.5 L 5.5 409.5 M 5.5 410.5 L 5.5 410"
                  fill="white"></path>
            <path stroke-width="1" stroke="black"
                  d="M 13.5 410.5 L 13.5 398.5 L 19.5 398.5 L 19.5 410.5 Z M 16.5 398.5 L 16.5 395 M 16.5 410.5 L 16.5 410"
                  fill="white"></path>
            <path stroke-width="1" stroke="black"
                  d="M 24.5 398.5 L 24.5 393.5 L 30.5 393.5 L 30.5 398.5 Z M 27.5 393.5 L 27.5 391 M 27.5 398.5 L 27.5 400"
                  fill="white"></path>
            <path stroke-width="1" stroke="black"
                  d="M 35.5 392.5 L 35.5 380.5 L 41.5 380.5 L 41.5 392.5 Z M 38.5 380.5 L 38.5 380.5 M 38.5 392.5 L 38.5 393"
                  fill="white"></path>
            <path stroke-width="1" stroke="black"
                  d="M 46.5 380.5 L 46.5 380.5 L 52.5 380.5 L 52.5 380.5 Z M 49.5 380.5 L 49.5 368 M 49.5 380.5 L 49.5 383"
                  fill="white"></path>
            <path stroke-width="1" stroke="black"
                  d="M 57.5 379.5 L 57.5 376.5 L 63.5 376.5 L 63.5 379.5 Z M 60.5 376.5 L 60.5 369 M 60.5 379.5 L 60.5 379"
                  fill="white"></path>
            <path stroke-width="1" stroke="black"
                  d="M 69.5 374.5 L 69.5 365.5 L 75.5 365.5 L 75.5 374.5 Z M 72.5 365.5 L 72.5 364 M 72.5 374.5 L 72.5 381"
                  fill="white"></path>
            <path stroke-width="1" stroke="black"
                  d="M 80.5 376.5 L 80.5 364.5 L 86.5 364.5 L 86.5 376.5 Z M 83.5 364.5 L 83.5 364.5 M 83.5 376.5 L 83.5 380"
                  fill="#7cb5ec"></path>
            <path stroke-width="1" stroke="black"
                  d="M 91.5 377.5 L 91.5 368.5 L 97.5 368.5 L 97.5 377.5 Z M 94.5 368.5 L 94.5 367 M 94.5 377.5 L 94.5 380"
                  fill="white"></path>
            <path stroke-width="1" stroke="black"
                  d="M 102.5 368.5 L 102.5 351.5 L 108.5 351.5 L 108.5 368.5 Z M 105.5 351.5 L 105.5 349 M 105.5 368.5 L 105.5 368"
                  fill="white"></path>
            <path stroke-width="1" stroke="black"
                  d="M 113.5 351.5 L 113.5 334.5 L 119.5 334.5 L 119.5 351.5 Z M 116.5 334.5 L 116.5 326 M 116.5 351.5 L 116.5 351"
                  fill="white"></path>
            <path stroke-width="1" stroke="black"
                  d="M 124.5 336.5 L 124.5 332.5 L 130.5 332.5 L 130.5 336.5 Z M 127.5 332.5 L 127.5 329 M 127.5 336.5 L 127.5 374"
                  fill="#7cb5ec"></path>
            <path stroke-width="1" stroke="black"
                  d="M 135.5 335.5 L 135.5 329.5 L 141.5 329.5 L 141.5 335.5 Z M 138.5 329.5 L 138.5 322 M 138.5 335.5 L 138.5 346"
                  fill="white"></path>
            <path stroke-width="1" stroke="black"
                  d="M 147.5 332.5 L 147.5 332.5 L 153.5 332.5 L 153.5 332.5 Z M 150.5 332.5 L 150.5 331 M 150.5 332.5 L 150.5 348"
                  fill="#7cb5ec"></path>
            <path stroke-width="1" stroke="black"
                  d="M 158.5 348.5 L 158.5 332.5 L 164.5 332.5 L 164.5 348.5 Z M 161.5 332.5 L 161.5 330 M 161.5 348.5 L 161.5 348"
                  fill="#7cb5ec"></path>
            <path stroke-width="1" stroke="black"
                  d="M 169.5 349.5 L 169.5 316.5 L 175.5 316.5 L 175.5 349.5 Z M 172.5 316.5 L 172.5 316.5 M 172.5 349.5 L 172.5 350"
                  fill="white"></path>
            <path stroke-width="1" stroke="black"
                  d="M 180.5 317.5 L 180.5 301.5 L 186.5 301.5 L 186.5 317.5 Z M 183.5 301.5 L 183.5 296 M 183.5 317.5 L 183.5 325"
                  fill="white"></path>
            <path stroke-width="1" stroke="black"
                  d="M 191.5 308.5 L 191.5 300.5 L 197.5 300.5 L 197.5 308.5 Z M 194.5 300.5 L 194.5 294 M 194.5 308.5 L 194.5 310"
                  fill="#7cb5ec"></path>
            <path stroke-width="1" stroke="black"
                  d="M 202.5 305.5 L 202.5 294.5 L 208.5 294.5 L 208.5 305.5 Z M 205.5 294.5 L 205.5 292 M 205.5 305.5 L 205.5 305"
                  fill="white"></path>
            <path stroke-width="1" stroke="black"
                  d="M 214.5 294.5 L 214.5 276.5 L 220.5 276.5 L 220.5 294.5 Z M 217.5 276.5 L 217.5 276.5 M 217.5 294.5 L 217.5 296"
                  fill="white"></path>
            <path stroke-width="1" stroke="black"
                  d="M 225.5 289.5 L 225.5 269.5 L 231.5 269.5 L 231.5 289.5 Z M 228.5 269.5 L 228.5 269.5 M 228.5 289.5 L 228.5 291"
                  fill="white"></path>
            <path stroke-width="1" stroke="black"
                  d="M 236.5 278.5 L 236.5 269.5 L 242.5 269.5 L 242.5 278.5 Z M 239.5 269.5 L 239.5 266 M 239.5 278.5 L 239.5 283"
                  fill="#7cb5ec"></path>
            <path stroke-width="1" stroke="black"
                  d="M 247.5 287.5 L 247.5 281.5 L 253.5 281.5 L 253.5 287.5 Z M 250.5 281.5 L 250.5 273 M 250.5 287.5 L 250.5 291"
                  fill="#7cb5ec"></path>
            <path stroke-width="1" stroke="black"
                  d="M 258.5 285.5 L 258.5 277.5 L 264.5 277.5 L 264.5 285.5 Z M 261.5 277.5 L 261.5 272 M 261.5 285.5 L 261.5 295"
                  fill="white"></path>
            <path stroke-width="1" stroke="black"
                  d="M 269.5 288.5 L 269.5 278.5 L 275.5 278.5 L 275.5 288.5 Z M 272.5 278.5 L 272.5 274 M 272.5 288.5 L 272.5 289"
                  fill="#7cb5ec"></path>
            <path stroke-width="1" stroke="black"
                  d="M 280.5 288.5 L 280.5 269.5 L 286.5 269.5 L 286.5 288.5 Z M 283.5 269.5 L 283.5 269.5 M 283.5 288.5 L 283.5 301"
                  fill="white"></path>
            <path stroke-width="1" stroke="black"
                  d="M 292.5 271.5 L 292.5 260.5 L 298.5 260.5 L 298.5 271.5 Z M 295.5 260.5 L 295.5 240 M 295.5 271.5 L 295.5 276"
                  fill="white"></path>
            <path stroke-width="1" stroke="black"
                  d="M 303.5 268.5 L 303.5 260.5 L 309.5 260.5 L 309.5 268.5 Z M 306.5 260.5 L 306.5 248 M 306.5 268.5 L 306.5 273"
                  fill="white"></path>
            <path stroke-width="1" stroke="black"
                  d="M 314.5 264.5 L 314.5 259.5 L 320.5 259.5 L 320.5 264.5 Z M 317.5 259.5 L 317.5 228 M 317.5 264.5 L 317.5 265"
                  fill="white"></path>
            <path stroke-width="1" stroke="black"
                  d="M 325.5 259.5 L 325.5 239.5 L 331.5 239.5 L 331.5 259.5 Z M 328.5 239.5 L 328.5 225 M 328.5 259.5 L 328.5 273"
                  fill="white"></path>
            <path stroke-width="1" stroke="black"
                  d="M 336.5 260.5 L 336.5 244.5 L 342.5 244.5 L 342.5 260.5 Z M 339.5 244.5 L 339.5 237 M 339.5 260.5 L 339.5 267"
                  fill="#7cb5ec"></path>
            <path stroke-width="1" stroke="black"
                  d="M 347.5 255.5 L 347.5 241.5 L 353.5 241.5 L 353.5 255.5 Z M 350.5 241.5 L 350.5 237 M 350.5 255.5 L 350.5 257"
                  fill="white"></path>
            <path stroke-width="1" stroke="black"
                  d="M 359.5 240.5 L 359.5 212.5 L 365.5 212.5 L 365.5 240.5 Z M 362.5 212.5 L 362.5 207 M 362.5 240.5 L 362.5 242"
                  fill="white"></path>
            <path stroke-width="1" stroke="black"
                  d="M 370.5 213.5 L 370.5 160.5 L 376.5 160.5 L 376.5 213.5 Z M 373.5 160.5 L 373.5 158 M 373.5 213.5 L 373.5 213"
                  fill="white"></path>
            <path stroke-width="1" stroke="black"
                  d="M 381.5 159.5 L 381.5 107.5 L 387.5 107.5 L 387.5 159.5 Z M 384.5 107.5 L 384.5 105 M 384.5 159.5 L 384.5 166"
                  fill="white"></path>
            <path stroke-width="1" stroke="black"
                  d="M 392.5 138.5 L 392.5 107.5 L 398.5 107.5 L 398.5 138.5 Z M 395.5 107.5 L 395.5 83 M 395.5 138.5 L 395.5 141"
                  fill="#7cb5ec"></path>
            <path stroke-width="1" stroke="black"
                  d="M 403.5 140.5 L 403.5 101.5 L 409.5 101.5 L 409.5 140.5 Z M 406.5 101.5 L 406.5 100 M 406.5 140.5 L 406.5 162"
                  fill="#7cb5ec"></path>
            <path stroke-width="1" stroke="black"
                  d="M 414.5 139.5 L 414.5 121.5 L 420.5 121.5 L 420.5 139.5 Z M 417.5 121.5 L 417.5 118 M 417.5 139.5 L 417.5 145"
                  fill="white"></path>
            <path stroke-width="1" stroke="black"
                  d="M 425.5 121.5 L 425.5 102.5 L 431.5 102.5 L 431.5 121.5 Z M 428.5 102.5 L 428.5 98 M 428.5 121.5 L 428.5 134"
                  fill="white"></path>
            <path stroke-width="1" stroke="black"
                  d="M 437.5 103.5 L 437.5 88.5 L 443.5 88.5 L 443.5 103.5 Z M 440.5 88.5 L 440.5 86 M 440.5 103.5 L 440.5 131"
                  fill="white"></path>
            <path stroke-width="1" stroke="black"
                  d="M 448.5 85.5 L 448.5 52.5 L 454.5 52.5 L 454.5 85.5 Z M 451.5 52.5 L 451.5 48 M 451.5 85.5 L 451.5 86"
                  fill="white"></path>
            <path stroke-width="1" stroke="black"
                  d="M 459.5 92.5 L 459.5 46.5 L 465.5 46.5 L 465.5 92.5 Z M 462.5 46.5 L 462.5 43 M 462.5 92.5 L 462.5 96"
                  fill="#7cb5ec"></path>
            <path stroke-width="1" stroke="black"
                  d="M 470.5 149.5 L 470.5 90.5 L 476.5 90.5 L 476.5 149.5 Z M 473.5 90.5 L 473.5 77 M 473.5 149.5 L 473.5 155"
                  fill="#7cb5ec"></path>
            <path stroke-width="1" stroke="black"
                  d="M 481.5 151.5 L 481.5 147.5 L 487.5 147.5 L 487.5 151.5 Z M 484.5 147.5 L 484.5 115 M 484.5 151.5 L 484.5 173"
                  fill="#7cb5ec"></path>
            <path stroke-width="1" stroke="black"
                  d="M 492.5 164.5 L 492.5 157.5 L 498.5 157.5 L 498.5 164.5 Z M 495.5 157.5 L 495.5 141 M 495.5 164.5 L 495.5 176"
                  fill="#7cb5ec"></path>
            <path stroke-width="1" stroke="black"
                  d="M 504.5 190.5 L 504.5 175.5 L 510.5 175.5 L 510.5 190.5 Z M 507.5 175.5 L 507.5 167 M 507.5 190.5 L 507.5 220"
                  fill="#7cb5ec"></path>
            <path stroke-width="1" stroke="black"
                  d="M 515.5 224.5 L 515.5 190.5 L 521.5 190.5 L 521.5 224.5 Z M 518.5 190.5 L 518.5 189 M 518.5 224.5 L 518.5 230"
                  fill="#7cb5ec"></path>
            <path stroke-width="1" stroke="black"
                  d="M 526.5 224.5 L 526.5 219.5 L 532.5 219.5 L 532.5 224.5 Z M 529.5 219.5 L 529.5 197 M 529.5 224.5 L 529.5 230"
                  fill="white"></path>
            <path stroke-width="1" stroke="black"
                  d="M 537.5 221.5 L 537.5 201.5 L 543.5 201.5 L 543.5 221.5 Z M 540.5 201.5 L 540.5 199 M 540.5 221.5 L 540.5 252"
                  fill="white"></path>
            <path stroke-width="1" stroke="black"
                  d="M 548.5 217.5 L 548.5 203.5 L 554.5 203.5 L 554.5 217.5 Z M 551.5 203.5 L 551.5 201 M 551.5 217.5 L 551.5 230"
                  fill="#7cb5ec"></path>
            <path stroke-width="1" stroke="black"
                  d="M 559.5 231.5 L 559.5 219.5 L 565.5 219.5 L 565.5 231.5 Z M 562.5 219.5 L 562.5 210 M 562.5 231.5 L 562.5 250"
                  fill="#7cb5ec"></path>
            <path stroke-width="1" stroke="black"
                  d="M 570.5 410.5 L 570.5 398.5 L 576.5 398.5 L 576.5 410.5 Z M 573.5 398.5 L 573.5 397 M 573.5 410.5 L 573.5 410"
                  fill="white"></path>
        </g>
        <g clip-path="none" transform="translate(10,77) scale(1 1)" class="highcharts-markers highcharts-series-0"></g>
        <g clip-path="url(#highcharts-36)" transform="translate(10,77) scale(1 1)"
           class="highcharts-series highcharts-series-1"></g>
        <g clip-path="none" transform="translate(10,77) scale(1 1)" class="highcharts-markers highcharts-series-1"></g>
        <g clip-path="url(#highcharts-37)" transform="translate(24,581) scale(1 1)"
           class="highcharts-series highcharts-series-2">
            <path fill-opacity="0.05"
                  d="M 0 36.666666666666664 C 0 36.666666666666664 1.104 36.36851274921256 1.84 36.1362719603148 C 2.576 35.904031171417046 2.944 35.61231408292353 3.68 35.50546272217788 C 4.4159999999999995 35.39861136143223 4.784 35.46040491945381 5.52 35.39861136143223 C 6.256 35.33681780341065 6.6240000000000006 35.35999038766875 7.36 35.196494932069996 C 8.096 35.03299947647125 8.464 34.78496700052352 9.2 34.581134083438464 C 9.935999999999998 34.377301166353405 10.303999999999998 34.336620407322535 11.04 34.177330346644695 C 11.776 34.018040285966855 12.144 33.92749555858802 12.88 33.784683780049264 C 13.616 33.641872001510514 13.984 33.57484315593433 14.72 33.463271453950924 C 15.456 33.35169975196752 15.823999999999998 33.256434683350925 16.56 33.22682527013225 C 17.296 33.19721585691358 17.663999999999998 33.19721585691358 18.4 33.19721585691358 C 19.136 33.19721585691358 19.503999999999998 33.594582764746775 20.24 33.594582764746775 C 20.976 33.594582764746775 21.344 33.165289185269096 22.08 32.97063947750114 C 22.816 32.77598976973317 23.184 32.62133422590695 23.92 32.62133422590695 C 24.656 32.62133422590695 25.024 32.86112756078513 25.76 33.0311456697306 C 26.496000000000002 33.201163778676076 26.864000000000004 33.47142477063433 27.6 33.47142477063433 C 28.336000000000002 33.47142477063433 28.704 33.41804200245458 29.44 33.12297776290155 C 30.176 32.82791352334852 30.544 32.31382545036347 31.28 31.996103572869195 C 32.016 31.678381695374924 32.384 31.78720701700181 33.12 31.53436837543019 C 33.855999999999995 31.281529733858573 34.224000000000004 31.1336543165375 34.96 30.731910365011114 C 35.696 30.33016641348473 36.064 29.52564861779826 36.8 29.52564861779826 C 37.536 29.52564861779826 37.903999999999996 29.718753486615686 38.64 29.88139069835303 C 39.376 30.04402791009037 39.744 30.33883467648498 40.48 30.33883467648498 C 41.215999999999994 30.33883467648498 41.584 30.123072169726303 42.32 29.866371430778337 C 43.056 29.609670691830374 43.424 29.05533098174515 44.16 29.05533098174515 C 44.896 29.05533098174515 45.263999999999996 29.75265411914141 46 29.856501626372115 C 46.736000000000004 29.96034913360282 47.104 29.96034913360282 47.84 29.96034913360282 C 48.576 29.96034913360282 48.944 29.57371027403726 49.68 29.57371027403726 C 50.416 29.57371027403726 50.784000000000006 30.090802200537258 51.52 30.228979462224395 C 52.25599999999999 30.36715672391153 52.624 30.36715672391153 53.36 30.36715672391153 C 54.096000000000004 30.36715672391153 54.46400000000001 29.382321892942656 55.2 28.88968991649287 C 55.936 28.39705794004308 56.303999999999995 28.263772668365988 57.04 27.90399684166259 C 57.775999999999996 27.54422101495919 58.144000000000005 27.333522146982833 58.88 27.09081078297587 C 59.61600000000001 26.8480994189689 59.984 26.840203575443926 60.72 26.690440021627744 C 61.455999999999996 26.540676467811565 61.824 26.341993013894964 62.56 26.341993013894964 C 63.29600000000001 26.341993013894964 63.66400000000001 26.44455315533355 64.4 26.44455315533355 C 65.136 26.44455315533355 65.50399999999999 26.04040612099522 66.24 25.891844108585012 C 66.976 25.743282096174806 67.34400000000001 25.891844108585012 68.08 25.70174309328252 C 68.816 25.511642077980028 69.184 24.89413561969498 69.92 24.872250401229003 C 70.65599999999999 24.850365182763028 71.024 24.872250401229003 71.76 24.850365182763028 C 72.49600000000001 24.828479964297053 72.864 24.193808628783785 73.6 24.10841336457341 C 74.33599999999998 24.023018100363032 74.704 24.058463571839297 75.44 24.023018100363032 C 76.176 23.987572628886767 76.54400000000001 23.93118600719208 77.28 23.93118600719208 C 78.016 23.93118600719208 78.384 24.494193980277558 79.12 24.564140854982533 C 79.856 24.634087729687508 80.224 24.634087729687508 80.96 24.634087729687508 C 81.696 24.634087729687508 82.064 24.634087729687508 82.8 24.610486023498712 C 83.53599999999999 24.586884317309917 83.904 24.207540530566355 84.64 24.207540530566355 C 85.376 24.207540530566355 85.744 24.837062402911165 86.48 24.837062402911165 C 87.216 24.837062402911165 87.58399999999999 24.716908262313652 88.32 24.716908262313652 C 89.056 24.716908262313652 89.424 25.62535938961696 90.16 25.62535938961696 C 90.896 25.62535938961696 91.264 25.27571084047821 92 24.719482993897884 C 92.736 24.163255147317557 93.104 23.487302282070427 93.84 22.844220156715323 C 94.576 22.20113803136023 94.944 21.504072367122394 95.68 21.504072367122394 C 96.41600000000001 21.504072367122394 96.784 22.758824892504954 97.52 22.758824892504954 C 98.256 22.758824892504954 98.624 22.6511152878979 99.36 22.49620227091325 C 100.096 22.341289253928604 100.46400000000001 22.29374254400645 101.2 21.984259807581722 C 101.936 21.674777071156992 102.304 20.94878858878961 103.04 20.94878858878961 C 103.776 20.94878858878961 104.144 21.56372031549044 104.88 21.56372031549044 C 105.61599999999999 21.56372031549044 105.984 20.809323961310362 106.72 20.809323961310362 C 107.45599999999999 20.809323961310362 107.824 20.919007526798662 108.56 21.252177793798328 C 109.296 21.585348060797994 109.66400000000002 22.47517529630869 110.4 22.47517529630869 C 111.13600000000001 22.47517529630869 111.50399999999999 21.816044010745212 112.24 21.659414506037745 C 112.976 21.502785001330277 113.34400000000001 21.659414506037745 114.08 21.502785001330277 C 114.816 21.34615549662281 115.184 20.56137730974879 115.92 20.071663362427792 C 116.65599999999999 19.581949415106806 117.024 19.644257919445227 117.76 19.05421526472532 C 118.49600000000001 18.464172610005406 118.86399999999999 18.060111400053216 119.6 17.121450088828237 C 120.33599999999998 16.182788777603275 120.704 15.289099444716218 121.44 14.360908708600459 C 122.176 13.4327179724847 122.54400000000001 13.497601208407351 123.28 12.480496408249444 C 124.016 11.463391608091516 124.38400000000001 10.252495344027045 125.12 9.275384707810868 C 125.856 8.298274071594692 126.224 7.594943227168564 126.96 7.594943227168564 C 127.696 7.594943227168564 128.06400000000002 8.333891191843248 128.8 8.696928345220009 C 129.536 9.059965498596767 129.904 8.860509625204898 130.64 9.41012899405236 C 131.37599999999998 9.959748362899823 131.74399999999997 11.44502518945733 132.48 11.44502518945733 C 133.21599999999998 11.44502518945733 133.584 10.999596625385129 134.32 10.747272930130361 C 135.05599999999998 10.494949234875591 135.424 10.354283065990366 136.16 10.183406713183484 C 136.89600000000002 10.012530360376594 137.26399999999998 10.183406713183484 138 9.892891166095936 C 138.73600000000002 9.602375619008388 139.10399999999998 8.32487963129844 139.84 8.32487963129844 C 140.576 8.32487963129844 140.94400000000002 9.03979676785362 141.68 9.03979676785362 C 142.416 9.03979676785362 142.78400000000002 8.22171871915685 143.52 7.382098749538699 C 144.25600000000003 6.542478779920514 144.62400000000002 5.440751135027497 145.36 4.841696919762775 C 146.096 4.242642704498053 146.464 4.54431542178394 147.2 4.242642704498053 C 147.93599999999998 3.940969987212165 148.304 3.3333333333333357 149.04 3.3333333333333357 C 149.776 3.3333333333333357 150.144 4.747633392552159 150.88 5.490958400920036 C 151.61599999999999 6.234283409287913 151.98399999999998 6.062720461391881 152.72 7.0499583751727215 C 153.456 8.037196288953526 153.824 9.595080546186399 154.56 10.427147969824148 C 155.296 11.259215393461897 155.66400000000002 11.259215393461897 156.4 11.259215393461897 C 157.13600000000002 11.259215393461897 157.504 11.128762326527447 158.24 11.128762326527447 C 158.97600000000003 11.128762326527447 159.344 13.639983865015399 160.08 13.639983865015399 C 160.81599999999997 13.639983865015399 161.18400000000003 13.171811838615824 161.92 13.171811838615824 C 162.656 13.171811838615824 163.02399999999997 14.881862732476806 163.76 15.71950874121373 C 164.496 16.55715474995065 164.86399999999998 17.310692860269327 165.6 17.36004188230044 C 166.33599999999998 17.409390904331552 166.704 17.36004188230044 167.44 17.409390904331552 C 168.176 17.458739926362664 168.544 18.990276097050216 169.28 18.990276097050216 C 170.01600000000002 18.990276097050216 170.38400000000001 18.017885802071792 171.12 18.017885802071792 C 171.856 18.017885802071792 172.224 18.46640404404506 172.96 18.92333307586017 C 173.696 19.380262107675264 174.06400000000002 20.302530961147294 174.8 20.302530961147294 C 175.536 20.302530961147294 175.904 18.89844400387925 176.64 18.622947724366394 C 177.37599999999998 18.34745144485354 177.74399999999997 18.424950865538932 178.48 18.34745144485354 C 179.21599999999998 18.26995202416815 179.584 18.235450620939435 180.32 18.235450620939435 C 181.05599999999998 18.235450620939435 181.424 18.50202116429363 182.16 18.964099659277185 C 182.89600000000002 19.426178154260757 183.26399999999998 18.964099659277185 184 20.545843095857254 C 184.73600000000002 22.127586532437324 185.10399999999998 36.1362719603148 185.84 36.1362719603148 C 186.576 36.1362719603148 186.94400000000002 35.61231408292353 187.68 35.50546272217788 C 188.416 35.39861136143223 188.78400000000002 35.46040491945381 189.52 35.39861136143223 C 190.25600000000003 35.33681780341065 190.62400000000002 35.35999038766875 191.36 35.196494932069996 C 192.096 35.03299947647125 192.464 34.78496700052352 193.2 34.581134083438464 C 193.93599999999998 34.377301166353405 194.304 34.336620407322535 195.04 34.177330346644695 C 195.776 34.018040285966855 196.144 33.927495558588014 196.88 33.784683780049264 C 197.61599999999999 33.64187200151051 197.98399999999998 33.57484315593433 198.72 33.463271453950924 C 199.456 33.35169975196752 199.824 33.256434683350925 200.56 33.22682527013225 C 201.296 33.19721585691358 201.66400000000002 33.19721585691358 202.4 33.19721585691358 C 203.13600000000002 33.19721585691358 203.504 33.594582764746775 204.24 33.594582764746775 C 204.97600000000003 33.594582764746775 205.344 33.16528918526911 206.08 32.97063947750114 C 206.81599999999997 32.77598976973319 207.18400000000003 32.62133422590695 207.92 32.62133422590695 C 208.656 32.62133422590695 209.02399999999997 32.86112756078513 209.76 33.0311456697306 C 210.496 33.201163778676076 210.86399999999998 33.47142477063433 211.6 33.47142477063433 C 212.33599999999996 33.47142477063433 212.704 33.41804200245458 213.44 33.12297776290155 C 214.176 32.82791352334852 214.544 32.31382545036347 215.28 31.996103572869195 C 216.016 31.678381695374924 216.38400000000001 31.78720701700181 217.12 31.53436837543019 C 217.856 31.281529733858573 218.224 31.133654316537505 218.96 30.731910365011114 C 219.696 30.330166413484736 220.06400000000002 29.52564861779826 220.8 29.52564861779826 C 221.536 29.52564861779826 221.904 29.718753486615686 222.64 29.88139069835303 C 223.37599999999998 30.04402791009037 223.74399999999997 30.33883467648498 224.48 30.33883467648498 C 225.21599999999998 30.33883467648498 225.584 30.123072169726303 226.32 29.866371430778337 C 227.05599999999998 29.609670691830374 227.42399999999998 29.05533098174515 228.16 29.05533098174515 C 228.89600000000002 29.05533098174515 229.26399999999998 29.75265411914141 230 29.856501626372115 C 230.73600000000002 29.96034913360282 231.10399999999998 29.96034913360282 231.84 29.96034913360282 C 232.57600000000002 29.96034913360282 232.94400000000002 29.57371027403726 233.68 29.57371027403726 C 234.416 29.57371027403726 234.78400000000002 30.090802200537258 235.52 30.228979462224395 C 236.25600000000003 30.36715672391153 236.62400000000002 30.36715672391153 237.36 30.36715672391153 C 238.096 30.36715672391153 238.464 29.38232189294266 239.2 28.88968991649287 C 239.93599999999998 28.397057940043084 240.304 28.26377266836598 241.04 27.90399684166259 C 241.776 27.544221014959184 242.144 27.333522146982833 242.88 27.09081078297587 C 243.61599999999999 26.8480994189689 243.984 26.840203575443926 244.72 26.690440021627744 C 245.456 26.540676467811565 245.824 26.341993013894964 246.56 26.341993013894964 C 247.296 26.341993013894964 247.66400000000004 26.44455315533355 248.4 26.44455315533355 C 249.13600000000002 26.44455315533355 249.504 26.04040612099522 250.24 25.891844108585012 C 250.97600000000003 25.743282096174806 251.344 25.891844108585012 252.08 25.70174309328252 C 252.81599999999997 25.511642077980028 253.18400000000003 24.89413561969498 253.92 24.872250401229003 C 254.656 24.850365182763028 255.02399999999997 24.872250401229003 255.76 24.850365182763028 C 256.496 24.828479964297053 256.86400000000003 24.193808628783785 257.6 24.10841336457341 C 258.336 24.023018100363032 258.704 24.058463571839297 259.44 24.023018100363032 C 260.176 23.987572628886767 260.544 23.93118600719208 261.28 23.93118600719208 C 262.01599999999996 23.93118600719208 262.384 24.494193980277558 263.12 24.564140854982533 C 263.856 24.634087729687508 264.224 24.634087729687508 264.96 24.634087729687508 C 265.696 24.634087729687508 266.064 24.634087729687508 266.8 24.610486023498712 C 267.536 24.586884317309917 267.904 24.207540530566355 268.64 24.207540530566355 C 269.37600000000003 24.207540530566355 269.744 24.837062402911165 270.48 24.837062402911165 C 271.216 24.837062402911165 271.584 24.716908262313652 272.32 24.716908262313652 C 273.05600000000004 24.716908262313652 273.424 25.62535938961696 274.16 25.62535938961696 C 274.896 25.62535938961696 275.264 25.27571084047821 276 24.719482993897884 C 276.736 24.163255147317557 277.104 23.4873022820704 277.84 22.844220156715323 C 278.576 22.201138031360202 278.94399999999996 21.504072367122394 279.68 21.504072367122394 C 280.416 21.504072367122394 280.784 22.758824892504954 281.52 22.758824892504954 C 282.256 22.758824892504954 282.62399999999997 22.651115287897905 283.36 22.49620227091325 C 284.096 22.34128925392861 284.464 22.293742544006452 285.2 21.984259807581722 C 285.936 21.674777071156996 286.304 20.94878858878961 287.04 20.94878858878961 C 287.776 20.94878858878961 288.144 21.56372031549044 288.88 21.56372031549044 C 289.616 21.56372031549044 289.98400000000004 20.809323961310362 290.72 20.809323961310362 C 291.456 20.809323961310362 291.824 20.919007526798662 292.56 21.252177793798328 C 293.296 21.585348060797994 293.664 22.47517529630869 294.4 22.47517529630869 C 295.13599999999997 22.47517529630869 295.504 21.816044010745212 296.24 21.659414506037745 C 296.976 21.502785001330277 297.344 21.659414506037745 298.08 21.502785001330277 C 298.816 21.34615549662281 299.184 20.561377309748785 299.92 20.071663362427792 C 300.656 19.581949415106802 301.024 19.644257919445227 301.76 19.05421526472532 C 302.496 18.464172610005406 302.86400000000003 18.060111400053206 303.6 17.121450088828237 C 304.336 16.182788777603264 304.704 15.289099444716218 305.44 14.360908708600459 C 306.176 13.4327179724847 306.544 13.497601208407362 307.28 12.480496408249444 C 308.01599999999996 11.463391608091527 308.384 10.252495344027045 309.12 9.275384707810868 C 309.856 8.298274071594692 310.224 7.594943227168564 310.96 7.594943227168564 C 311.696 7.594943227168564 312.064 8.333891191843248 312.8 8.696928345220009 C 313.536 9.059965498596767 313.904 8.86050962520492 314.64 9.41012899405236 C 315.37600000000003 9.959748362899845 315.744 11.44502518945733 316.48 11.44502518945733 C 317.216 11.44502518945733 317.584 10.99959662538512 318.32 10.747272930130361 C 319.05600000000004 10.494949234875582 319.424 10.354283065990376 320.16 10.183406713183484 C 320.896 10.012530360376605 321.264 10.183406713183484 322 9.892891166095936 C 322.736 9.602375619008388 323.104 8.32487963129844 323.84 8.32487963129844 C 324.576 8.32487963129844 324.94399999999996 9.03979676785362 325.68 9.03979676785362 C 326.416 9.03979676785362 326.784 8.221718719156868 327.52 7.382098749538699 C 328.256 6.54247877992053 328.62399999999997 5.440751135027497 329.36 4.841696919762775 C 330.096 4.242642704498053 330.464 4.54431542178394 331.2 4.242642704498053 C 331.936 3.940969987212165 332.304 3.3333333333333357 333.04 3.3333333333333357 C 333.776 3.3333333333333357 334.144 4.747633392552159 334.88 5.490958400920036 C 335.616 6.234283409287913 335.98400000000004 6.062720461391899 336.72 7.0499583751727215 C 337.456 8.037196288953544 337.824 9.595080546186399 338.56 10.427147969824148 C 339.296 11.259215393461897 339.664 11.259215393461897 340.4 11.259215393461897 C 341.13599999999997 11.259215393461897 341.504 11.128762326527447 342.24 11.128762326527447 C 342.976 11.128762326527447 343.344 13.639983865015399 344.08 13.639983865015399 C 344.816 13.639983865015399 345.184 13.171811838615824 345.92 13.171811838615824 C 346.656 13.171811838615824 347.024 14.881862732476806 347.76 15.71950874121373 C 348.496 16.55715474995065 348.86400000000003 17.310692860269327 349.6 17.36004188230044 C 350.33600000000007 17.409390904331552 350.704 17.36004188230044 351.44 17.409390904331552 C 352.176 17.458739926362664 352.544 18.990276097050216 353.28 18.990276097050216 C 354.01599999999996 18.990276097050216 354.384 18.017885802071792 355.12 18.017885802071792 C 355.85600000000005 18.017885802071792 356.224 18.466404044045085 356.96 18.92333307586017 C 357.696 19.38026210767529 358.064 20.302530961147294 358.8 20.302530961147294 C 359.536 20.302530961147294 359.904 18.89844400387925 360.64 18.622947724366394 C 361.37600000000003 18.34745144485354 361.744 18.424950865538932 362.48 18.34745144485354 C 363.216 18.26995202416815 363.584 18.235450620939435 364.32 18.235450620939435 C 365.05600000000004 18.235450620939435 365.424 18.502021164293602 366.16 18.964099659277185 C 366.896 19.42617815426073 367.264 18.964099659277185 368 20.545843095857254 C 368.736 22.127586532437324 369.104 36.1362719603148 369.84 36.1362719603148 C 370.576 36.1362719603148 370.94399999999996 35.61231408292353 371.68 35.50546272217788 C 372.416 35.39861136143223 372.784 35.46040491945381 373.52 35.39861136143223 C 374.256 35.33681780341065 374.62399999999997 35.35999038766875 375.36 35.196494932069996 C 376.096 35.03299947647125 376.464 34.78496700052352 377.2 34.581134083438464 C 377.936 34.377301166353405 378.304 34.33662040732254 379.04 34.177330346644695 C 379.776 34.01804028596686 380.14399999999995 33.92749555858802 380.88 33.784683780049264 C 381.616 33.641872001510514 381.98400000000004 33.574843155934325 382.72 33.463271453950924 C 383.456 33.351699751967516 383.824 33.256434683350925 384.56 33.22682527013225 C 385.296 33.19721585691358 385.66399999999993 33.19721585691358 386.4 33.19721585691358 C 387.13599999999997 33.19721585691358 387.504 33.594582764746775 388.24 33.594582764746775 C 388.976 33.594582764746775 389.344 33.165289185269096 390.08 32.97063947750114 C 390.816 32.77598976973317 391.184 32.62133422590695 391.92 32.62133422590695 C 392.656 32.62133422590695 393.024 32.86112756078513 393.76 33.0311456697306 C 394.496 33.201163778676076 394.86400000000003 33.47142477063433 395.6 33.47142477063433 C 396.33600000000007 33.47142477063433 396.704 33.41804200245458 397.44 33.12297776290155 C 398.176 32.82791352334852 398.544 32.31382545036347 399.28 31.996103572869195 C 400.01599999999996 31.678381695374924 400.384 31.787207017001798 401.12 31.53436837543019 C 401.85600000000005 31.281529733858562 402.224 31.133654316537484 402.96 30.731910365011114 C 403.696 30.330166413484715 404.064 29.52564861779826 404.8 29.52564861779826 C 405.536 29.52564861779826 405.904 29.718753486615693 406.64 29.88139069835303 C 407.37600000000003 30.044027910090378 407.744 30.33883467648498 408.48 30.33883467648498 C 409.216 30.33883467648498 409.584 30.123072169726292 410.32 29.866371430778337 C 411.05600000000004 29.609670691830363 411.424 29.05533098174515 412.16 29.05533098174515 C 412.896 29.05533098174515 413.264 29.75265411914141 414 29.856501626372115 C 414.736 29.96034913360282 415.104 29.96034913360282 415.84 29.96034913360282 C 416.576 29.96034913360282 416.94399999999996 29.57371027403726 417.68 29.57371027403726 C 418.416 29.57371027403726 418.784 30.090802200537258 419.52 30.228979462224395 C 420.256 30.36715672391153 420.62399999999997 30.36715672391153 421.36 30.36715672391153 C 422.096 30.36715672391153 422.46399999999994 29.382321892942677 423.2 28.88968991649287 C 423.936 28.3970579400431 424.304 28.263772668366002 425.04 27.90399684166259 C 425.776 27.544221014959206 426.14399999999995 27.333522146982844 426.88 27.09081078297587 C 427.616 26.84809941896891 427.98400000000004 26.840203575443926 428.72 26.690440021627744 C 429.456 26.540676467811565 429.82399999999996 26.341993013894964 430.56 26.341993013894964 C 431.296 26.341993013894964 431.66399999999993 26.44455315533355 432.4 26.44455315533355 C 433.13599999999997 26.44455315533355 433.504 26.04040612099522 434.24 25.891844108585012 C 434.976 25.743282096174806 435.34400000000005 25.891844108585012 436.08 25.70174309328252 C 436.816 25.511642077980028 437.184 24.89413561969498 437.92 24.872250401229003 C 438.65599999999995 24.850365182763028 439.024 24.872250401229003 439.76 24.850365182763028 C 440.496 24.828479964297053 440.86400000000003 24.193808628783785 441.6 24.10841336457341 C 442.33600000000007 24.023018100363032 442.704 24.058463571839297 443.44 24.023018100363032 C 444.17600000000004 23.987572628886767 444.544 23.93118600719208 445.28 23.93118600719208 C 446.01599999999996 23.93118600719208 446.384 24.494193980277558 447.12 24.564140854982533 C 447.85600000000005 24.634087729687508 448.224 24.634087729687508 448.96 24.634087729687508 C 449.696 24.634087729687508 450.064 24.634087729687508 450.8 24.610486023498712 C 451.53600000000006 24.586884317309917 451.904 24.207540530566355 452.64 24.207540530566355 C 453.37600000000003 24.207540530566355 453.744 24.837062402911165 454.48 24.837062402911165 C 455.216 24.837062402911165 455.584 24.716908262313652 456.32 24.716908262313652 C 457.05600000000004 24.716908262313652 457.424 25.62535938961696 458.16 25.62535938961696 C 458.896 25.62535938961696 459.264 25.27571084047821 460 24.719482993897884 C 460.736 24.163255147317557 461.104 23.4873022820704 461.84 22.844220156715323 C 462.576 22.201138031360202 462.94399999999996 21.504072367122394 463.68 21.504072367122394 C 464.416 21.504072367122394 464.784 22.758824892504954 465.52 22.758824892504954 C 466.256 22.758824892504954 466.62399999999997 22.651115287897905 467.36 22.49620227091325 C 468.096 22.34128925392861 468.46399999999994 22.293742544006463 469.2 21.984259807581722 C 469.936 21.674777071157006 470.304 20.94878858878961 471.04 20.94878858878961 C 471.776 20.94878858878961 472.14399999999995 21.56372031549044 472.88 21.56372031549044 C 473.616 21.56372031549044 473.98400000000004 20.809323961310362 474.72 20.809323961310362 C 475.456 20.809323961310362 475.82399999999996 20.919007526798648 476.56 21.252177793798328 C 477.296 21.58534806079798 477.66399999999993 22.47517529630869 478.4 22.47517529630869 C 479.13599999999997 22.47517529630869 479.504 21.816044010745212 480.24 21.659414506037745 C 480.976 21.502785001330277 481.34400000000005 21.659414506037745 482.08 21.502785001330277 C 482.816 21.34615549662281 483.184 20.561377309748803 483.92 20.071663362427792 C 484.65599999999995 19.58194941510682 485.024 19.644257919445227 485.76 19.05421526472532 C 486.496 18.464172610005406 486.86400000000003 18.06011140005317 487.6 17.121450088828237 C 488.33600000000007 16.18278877760323 488.704 15.289099444716182 489.44 14.360908708600459 C 490.17600000000004 13.432717972484664 490.544 13.497601208407362 491.28 12.480496408249444 C 492.01599999999996 11.463391608091527 492.384 10.252495344027007 493.12 9.275384707810868 C 493.85600000000005 8.298274071594655 494.224 7.594943227168564 494.96 7.594943227168564 C 495.696 7.594943227168564 496.064 8.333891191843263 496.8 8.696928345220009 C 497.53600000000006 9.059965498596782 497.904 8.86050962520492 498.64 9.41012899405236 C 499.37600000000003 9.959748362899845 499.744 11.44502518945733 500.48 11.44502518945733 C 501.216 11.44502518945733 501.584 10.99959662538512 502.32 10.747272930130361 C 503.05600000000004 10.494949234875582 503.424 10.354283065990376 504.16 10.183406713183484 C 504.896 10.012530360376605 505.264 10.183406713183484 506 9.892891166095936 C 506.736 9.602375619008388 507.104 8.32487963129844 507.84 8.32487963129844 C 508.576 8.32487963129844 508.94399999999996 9.03979676785362 509.68 9.03979676785362 C 510.416 9.03979676785362 510.784 8.221718719156868 511.52 7.382098749538699 C 512.256 6.54247877992053 512.624 5.440751135027497 513.36 4.841696919762775 C 514.096 4.242642704498053 514.464 4.54431542178394 515.2 4.242642704498053 C 515.936 3.940969987212165 516.304 3.3333333333333357 517.04 3.3333333333333357 C 517.7760000000001 3.3333333333333357 518.144 4.747633392552159 518.88 5.490958400920036 C 519.616 6.234283409287913 519.984 6.062720461391822 520.72 7.0499583751727215 C 521.4559999999999 8.037196288953467 521.824 9.595080546186399 522.56 10.427147969824148 C 523.2959999999999 11.259215393461897 523.664 11.259215393461897 524.4 11.259215393461897 C 525.136 11.259215393461897 525.504 11.128762326527447 526.24 11.128762326527447 C 526.976 11.128762326527447 527.344 13.639983865015399 528.08 13.639983865015399 C 528.816 13.639983865015399 529.184 13.171811838615824 529.92 13.171811838615824 C 530.656 13.171811838615824 531.024 14.881862732476806 531.76 15.71950874121373 C 532.496 16.55715474995065 532.864 17.310692860269327 533.6 17.36004188230044 C 534.336 17.409390904331552 534.7040000000001 17.36004188230044 535.44 17.409390904331552 C 536.176 17.458739926362664 536.5440000000001 18.990276097050216 537.28 18.990276097050216 C 538.016 18.990276097050216 538.384 18.017885802071792 539.12 18.017885802071792 C 539.856 18.017885802071792 540.2239999999999 18.466404044045035 540.96 18.92333307586017 C 541.696 19.38026210767524 542.064 20.302530961147294 542.8 20.302530961147294 C 543.536 20.302530961147294 543.904 18.89844400387925 544.64 18.622947724366394 C 545.376 18.34745144485354 545.744 18.424950865538932 546.48 18.34745144485354 C 547.216 18.26995202416815 547.5840000000001 18.235450620939435 548.32 18.235450620939435 C 549.0559999999999 18.235450620939435 549.424 18.502021164293623 550.16 18.964099659277185 C 550.896 19.42617815426075 552 20.545843095857254 552 20.545843095857254 L 552 40 C 552 40 550.896 40 550.16 40 C 549.424 40 549.0559999999999 40 548.32 40 C 547.5840000000001 40 547.216 40 546.48 40 C 545.744 40 545.376 40 544.64 40 C 543.904 40 543.536 40 542.8 40 C 542.064 40 541.696 40 540.96 40 C 540.2239999999999 40 539.856 40 539.12 40 C 538.384 40 538.016 40 537.28 40 C 536.5440000000001 40 536.176 40 535.44 40 C 534.7040000000001 40 534.336 40 533.6 40 C 532.864 40 532.496 40 531.76 40 C 531.024 40 530.656 40 529.92 40 C 529.184 40 528.816 40 528.08 40 C 527.344 40 526.976 40 526.24 40 C 525.504 40 525.136 40 524.4 40 C 523.664 40 523.2959999999999 40 522.56 40 C 521.824 40 521.4559999999999 40 520.72 40 C 519.984 40 519.616 40 518.88 40 C 518.144 40 517.7760000000001 40 517.04 40 C 516.304 40 515.936 40 515.2 40 C 514.464 40 514.096 40 513.36 40 C 512.624 40 512.256 40 511.52 40 C 510.784 40 510.416 40 509.68 40 C 508.94399999999996 40 508.576 40 507.84 40 C 507.104 40 506.736 40 506 40 C 505.264 40 504.896 40 504.16 40 C 503.424 40 503.05600000000004 40 502.32 40 C 501.584 40 501.216 40 500.48 40 C 499.744 40 499.37600000000003 40 498.64 40 C 497.904 40 497.53600000000006 40 496.8 40 C 496.064 40 495.696 40 494.96 40 C 494.224 40 493.85600000000005 40 493.12 40 C 492.384 40 492.01599999999996 40 491.28 40 C 490.544 40 490.17600000000004 40 489.44 40 C 488.704 40 488.33600000000007 40 487.6 40 C 486.86400000000003 40 486.496 40 485.76 40 C 485.024 40 484.65599999999995 40 483.92 40 C 483.184 40 482.816 40 482.08 40 C 481.34400000000005 40 480.976 40 480.24 40 C 479.504 40 479.13599999999997 40 478.4 40 C 477.66399999999993 40 477.296 40 476.56 40 C 475.82399999999996 40 475.456 40 474.72 40 C 473.98400000000004 40 473.616 40 472.88 40 C 472.14399999999995 40 471.776 40 471.04 40 C 470.304 40 469.936 40 469.2 40 C 468.46399999999994 40 468.096 40 467.36 40 C 466.62399999999997 40 466.256 40 465.52 40 C 464.784 40 464.416 40 463.68 40 C 462.94399999999996 40 462.576 40 461.84 40 C 461.104 40 460.736 40 460 40 C 459.264 40 458.896 40 458.16 40 C 457.424 40 457.05600000000004 40 456.32 40 C 455.584 40 455.216 40 454.48 40 C 453.744 40 453.37600000000003 40 452.64 40 C 451.904 40 451.53600000000006 40 450.8 40 C 450.064 40 449.696 40 448.96 40 C 448.224 40 447.85600000000005 40 447.12 40 C 446.384 40 446.01599999999996 40 445.28 40 C 444.544 40 444.17600000000004 40 443.44 40 C 442.704 40 442.33600000000007 40 441.6 40 C 440.86400000000003 40 440.496 40 439.76 40 C 439.024 40 438.65599999999995 40 437.92 40 C 437.184 40 436.816 40 436.08 40 C 435.34400000000005 40 434.976 40 434.24 40 C 433.504 40 433.13599999999997 40 432.4 40 C 431.66399999999993 40 431.296 40 430.56 40 C 429.82399999999996 40 429.456 40 428.72 40 C 427.98400000000004 40 427.616 40 426.88 40 C 426.14399999999995 40 425.776 40 425.04 40 C 424.304 40 423.936 40 423.2 40 C 422.46399999999994 40 422.096 40 421.36 40 C 420.62399999999997 40 420.256 40 419.52 40 C 418.784 40 418.416 40 417.68 40 C 416.94399999999996 40 416.576 40 415.84 40 C 415.104 40 414.736 40 414 40 C 413.264 40 412.896 40 412.16 40 C 411.424 40 411.05600000000004 40 410.32 40 C 409.584 40 409.216 40 408.48 40 C 407.744 40 407.37600000000003 40 406.64 40 C 405.904 40 405.536 40 404.8 40 C 404.064 40 403.696 40 402.96 40 C 402.224 40 401.85600000000005 40 401.12 40 C 400.384 40 400.01599999999996 40 399.28 40 C 398.544 40 398.176 40 397.44 40 C 396.704 40 396.33600000000007 40 395.6 40 C 394.86400000000003 40 394.496 40 393.76 40 C 393.024 40 392.656 40 391.92 40 C 391.184 40 390.816 40 390.08 40 C 389.344 40 388.976 40 388.24 40 C 387.504 40 387.13599999999997 40 386.4 40 C 385.66399999999993 40 385.296 40 384.56 40 C 383.824 40 383.456 40 382.72 40 C 381.98400000000004 40 381.616 40 380.88 40 C 380.14399999999995 40 379.776 40 379.04 40 C 378.304 40 377.936 40 377.2 40 C 376.464 40 376.096 40 375.36 40 C 374.62399999999997 40 374.256 40 373.52 40 C 372.784 40 372.416 40 371.68 40 C 370.94399999999996 40 370.576 40 369.84 40 C 369.104 40 368.736 40 368 40 C 367.264 40 366.896 40 366.16 40 C 365.424 40 365.05600000000004 40 364.32 40 C 363.584 40 363.216 40 362.48 40 C 361.744 40 361.37600000000003 40 360.64 40 C 359.904 40 359.536 40 358.8 40 C 358.064 40 357.696 40 356.96 40 C 356.224 40 355.85600000000005 40 355.12 40 C 354.384 40 354.01599999999996 40 353.28 40 C 352.544 40 352.176 40 351.44 40 C 350.704 40 350.33600000000007 40 349.6 40 C 348.86400000000003 40 348.496 40 347.76 40 C 347.024 40 346.656 40 345.92 40 C 345.184 40 344.816 40 344.08 40 C 343.344 40 342.976 40 342.24 40 C 341.504 40 341.13599999999997 40 340.4 40 C 339.664 40 339.296 40 338.56 40 C 337.824 40 337.456 40 336.72 40 C 335.98400000000004 40 335.616 40 334.88 40 C 334.144 40 333.776 40 333.04 40 C 332.304 40 331.936 40 331.2 40 C 330.464 40 330.096 40 329.36 40 C 328.62399999999997 40 328.256 40 327.52 40 C 326.784 40 326.416 40 325.68 40 C 324.94399999999996 40 324.576 40 323.84 40 C 323.104 40 322.736 40 322 40 C 321.264 40 320.896 40 320.16 40 C 319.424 40 319.05600000000004 40 318.32 40 C 317.584 40 317.216 40 316.48 40 C 315.744 40 315.37600000000003 40 314.64 40 C 313.904 40 313.536 40 312.8 40 C 312.064 40 311.696 40 310.96 40 C 310.224 40 309.856 40 309.12 40 C 308.384 40 308.01599999999996 40 307.28 40 C 306.544 40 306.176 40 305.44 40 C 304.704 40 304.336 40 303.6 40 C 302.86400000000003 40 302.496 40 301.76 40 C 301.024 40 300.656 40 299.92 40 C 299.184 40 298.816 40 298.08 40 C 297.344 40 296.976 40 296.24 40 C 295.504 40 295.13599999999997 40 294.4 40 C 293.664 40 293.296 40 292.56 40 C 291.824 40 291.456 40 290.72 40 C 289.98400000000004 40 289.616 40 288.88 40 C 288.144 40 287.776 40 287.04 40 C 286.304 40 285.936 40 285.2 40 C 284.464 40 284.096 40 283.36 40 C 282.62399999999997 40 282.256 40 281.52 40 C 280.784 40 280.416 40 279.68 40 C 278.94399999999996 40 278.576 40 277.84 40 C 277.104 40 276.736 40 276 40 C 275.264 40 274.896 40 274.16 40 C 273.424 40 273.05600000000004 40 272.32 40 C 271.584 40 271.216 40 270.48 40 C 269.744 40 269.37600000000003 40 268.64 40 C 267.904 40 267.536 40 266.8 40 C 266.064 40 265.696 40 264.96 40 C 264.224 40 263.856 40 263.12 40 C 262.384 40 262.01599999999996 40 261.28 40 C 260.544 40 260.176 40 259.44 40 C 258.704 40 258.336 40 257.6 40 C 256.86400000000003 40 256.496 40 255.76 40 C 255.02399999999997 40 254.656 40 253.92 40 C 253.18400000000003 40 252.81599999999997 40 252.08 40 C 251.344 40 250.97600000000003 40 250.24 40 C 249.504 40 249.13600000000002 40 248.4 40 C 247.66400000000004 40 247.296 40 246.56 40 C 245.824 40 245.456 40 244.72 40 C 243.984 40 243.61599999999999 40 242.88 40 C 242.144 40 241.776 40 241.04 40 C 240.304 40 239.93599999999998 40 239.2 40 C 238.464 40 238.096 40 237.36 40 C 236.62400000000002 40 236.25600000000003 40 235.52 40 C 234.78400000000002 40 234.416 40 233.68 40 C 232.94400000000002 40 232.57600000000002 40 231.84 40 C 231.10399999999998 40 230.73600000000002 40 230 40 C 229.26399999999998 40 228.89600000000002 40 228.16 40 C 227.42399999999998 40 227.05599999999998 40 226.32 40 C 225.584 40 225.21599999999998 40 224.48 40 C 223.74399999999997 40 223.37599999999998 40 222.64 40 C 221.904 40 221.536 40 220.8 40 C 220.06400000000002 40 219.696 40 218.96 40 C 218.224 40 217.856 40 217.12 40 C 216.38400000000001 40 216.016 40 215.28 40 C 214.544 40 214.176 40 213.44 40 C 212.704 40 212.33599999999996 40 211.6 40 C 210.86399999999998 40 210.496 40 209.76 40 C 209.02399999999997 40 208.656 40 207.92 40 C 207.18400000000003 40 206.81599999999997 40 206.08 40 C 205.344 40 204.97600000000003 40 204.24 40 C 203.504 40 203.13600000000002 40 202.4 40 C 201.66400000000002 40 201.296 40 200.56 40 C 199.824 40 199.456 40 198.72 40 C 197.98399999999998 40 197.61599999999999 40 196.88 40 C 196.144 40 195.776 40 195.04 40 C 194.304 40 193.93599999999998 40 193.2 40 C 192.464 40 192.096 40 191.36 40 C 190.62400000000002 40 190.25600000000003 40 189.52 40 C 188.78400000000002 40 188.416 40 187.68 40 C 186.94400000000002 40 186.576 40 185.84 40 C 185.10399999999998 40 184.73600000000002 40 184 40 C 183.26399999999998 40 182.89600000000002 40 182.16 40 C 181.424 40 181.05599999999998 40 180.32 40 C 179.584 40 179.21599999999998 40 178.48 40 C 177.74399999999997 40 177.37599999999998 40 176.64 40 C 175.904 40 175.536 40 174.8 40 C 174.06400000000002 40 173.696 40 172.96 40 C 172.224 40 171.856 40 171.12 40 C 170.38400000000001 40 170.01600000000002 40 169.28 40 C 168.544 40 168.176 40 167.44 40 C 166.704 40 166.33599999999998 40 165.6 40 C 164.86399999999998 40 164.496 40 163.76 40 C 163.02399999999997 40 162.656 40 161.92 40 C 161.18400000000003 40 160.81599999999997 40 160.08 40 C 159.344 40 158.97600000000003 40 158.24 40 C 157.504 40 157.13600000000002 40 156.4 40 C 155.66400000000002 40 155.296 40 154.56 40 C 153.824 40 153.456 40 152.72 40 C 151.98399999999998 40 151.61599999999999 40 150.88 40 C 150.144 40 149.776 40 149.04 40 C 148.304 40 147.93599999999998 40 147.2 40 C 146.464 40 146.096 40 145.36 40 C 144.62400000000002 40 144.25600000000003 40 143.52 40 C 142.78400000000002 40 142.416 40 141.68 40 C 140.94400000000002 40 140.576 40 139.84 40 C 139.10399999999998 40 138.73600000000002 40 138 40 C 137.26399999999998 40 136.89600000000002 40 136.16 40 C 135.424 40 135.05599999999998 40 134.32 40 C 133.584 40 133.21599999999998 40 132.48 40 C 131.74399999999997 40 131.37599999999998 40 130.64 40 C 129.904 40 129.536 40 128.8 40 C 128.06400000000002 40 127.696 40 126.96 40 C 126.224 40 125.856 40 125.12 40 C 124.38400000000001 40 124.016 40 123.28 40 C 122.54400000000001 40 122.176 40 121.44 40 C 120.704 40 120.33599999999998 40 119.6 40 C 118.86399999999999 40 118.49600000000001 40 117.76 40 C 117.024 40 116.65599999999999 40 115.92 40 C 115.184 40 114.816 40 114.08 40 C 113.34400000000001 40 112.976 40 112.24 40 C 111.50399999999999 40 111.13600000000001 40 110.4 40 C 109.66400000000002 40 109.296 40 108.56 40 C 107.824 40 107.45599999999999 40 106.72 40 C 105.984 40 105.61599999999999 40 104.88 40 C 104.144 40 103.776 40 103.04 40 C 102.304 40 101.936 40 101.2 40 C 100.46400000000001 40 100.096 40 99.36 40 C 98.624 40 98.256 40 97.52 40 C 96.784 40 96.41600000000001 40 95.68 40 C 94.944 40 94.576 40 93.84 40 C 93.104 40 92.736 40 92 40 C 91.264 40 90.896 40 90.16 40 C 89.424 40 89.056 40 88.32 40 C 87.58399999999999 40 87.216 40 86.48 40 C 85.744 40 85.376 40 84.64 40 C 83.904 40 83.53599999999999 40 82.8 40 C 82.064 40 81.696 40 80.96 40 C 80.224 40 79.856 40 79.12 40 C 78.384 40 78.016 40 77.28 40 C 76.54400000000001 40 76.176 40 75.44 40 C 74.704 40 74.33599999999998 40 73.6 40 C 72.864 40 72.49600000000001 40 71.76 40 C 71.024 40 70.65599999999999 40 69.92 40 C 69.184 40 68.816 40 68.08 40 C 67.34400000000001 40 66.976 40 66.24 40 C 65.50399999999999 40 65.136 40 64.4 40 C 63.66400000000001 40 63.29600000000001 40 62.56 40 C 61.824 40 61.455999999999996 40 60.72 40 C 59.984 40 59.61600000000001 40 58.88 40 C 58.144000000000005 40 57.775999999999996 40 57.04 40 C 56.303999999999995 40 55.936 40 55.2 40 C 54.46400000000001 40 54.096000000000004 40 53.36 40 C 52.624 40 52.25599999999999 40 51.52 40 C 50.784000000000006 40 50.416 40 49.68 40 C 48.944 40 48.576 40 47.84 40 C 47.104 40 46.736000000000004 40 46 40 C 45.263999999999996 40 44.896 40 44.16 40 C 43.424 40 43.056 40 42.32 40 C 41.584 40 41.215999999999994 40 40.48 40 C 39.744 40 39.376 40 38.64 40 C 37.903999999999996 40 37.536 40 36.8 40 C 36.064 40 35.696 40 34.96 40 C 34.224000000000004 40 33.855999999999995 40 33.12 40 C 32.384 40 32.016 40 31.28 40 C 30.544 40 30.176 40 29.44 40 C 28.704 40 28.336000000000002 40 27.6 40 C 26.864000000000004 40 26.496000000000002 40 25.76 40 C 25.024 40 24.656 40 23.92 40 C 23.184 40 22.816 40 22.08 40 C 21.344 40 20.976 40 20.24 40 C 19.503999999999998 40 19.136 40 18.4 40 C 17.663999999999998 40 17.296 40 16.56 40 C 15.823999999999998 40 15.456 40 14.72 40 C 13.984 40 13.616 40 12.88 40 C 12.144 40 11.776 40 11.04 40 C 10.303999999999998 40 9.935999999999998 40 9.2 40 C 8.464 40 8.096 40 7.36 40 C 6.6240000000000006 40 6.256 40 5.52 40 C 4.784 40 4.4159999999999995 40 3.68 40 C 2.944 40 2.576 40 1.84 40 C 1.104 40 0 40 0 40"
                  fill="#4572A7"></path>
            <path stroke-linecap="round" stroke-linejoin="round" stroke-width="1" stroke="#4572A7"
                  d="M 0 36.666666666666664 C 0 36.666666666666664 1.104 36.36851274921256 1.84 36.1362719603148 C 2.576 35.904031171417046 2.944 35.61231408292353 3.68 35.50546272217788 C 4.4159999999999995 35.39861136143223 4.784 35.46040491945381 5.52 35.39861136143223 C 6.256 35.33681780341065 6.6240000000000006 35.35999038766875 7.36 35.196494932069996 C 8.096 35.03299947647125 8.464 34.78496700052352 9.2 34.581134083438464 C 9.935999999999998 34.377301166353405 10.303999999999998 34.336620407322535 11.04 34.177330346644695 C 11.776 34.018040285966855 12.144 33.92749555858802 12.88 33.784683780049264 C 13.616 33.641872001510514 13.984 33.57484315593433 14.72 33.463271453950924 C 15.456 33.35169975196752 15.823999999999998 33.256434683350925 16.56 33.22682527013225 C 17.296 33.19721585691358 17.663999999999998 33.19721585691358 18.4 33.19721585691358 C 19.136 33.19721585691358 19.503999999999998 33.594582764746775 20.24 33.594582764746775 C 20.976 33.594582764746775 21.344 33.165289185269096 22.08 32.97063947750114 C 22.816 32.77598976973317 23.184 32.62133422590695 23.92 32.62133422590695 C 24.656 32.62133422590695 25.024 32.86112756078513 25.76 33.0311456697306 C 26.496000000000002 33.201163778676076 26.864000000000004 33.47142477063433 27.6 33.47142477063433 C 28.336000000000002 33.47142477063433 28.704 33.41804200245458 29.44 33.12297776290155 C 30.176 32.82791352334852 30.544 32.31382545036347 31.28 31.996103572869195 C 32.016 31.678381695374924 32.384 31.78720701700181 33.12 31.53436837543019 C 33.855999999999995 31.281529733858573 34.224000000000004 31.1336543165375 34.96 30.731910365011114 C 35.696 30.33016641348473 36.064 29.52564861779826 36.8 29.52564861779826 C 37.536 29.52564861779826 37.903999999999996 29.718753486615686 38.64 29.88139069835303 C 39.376 30.04402791009037 39.744 30.33883467648498 40.48 30.33883467648498 C 41.215999999999994 30.33883467648498 41.584 30.123072169726303 42.32 29.866371430778337 C 43.056 29.609670691830374 43.424 29.05533098174515 44.16 29.05533098174515 C 44.896 29.05533098174515 45.263999999999996 29.75265411914141 46 29.856501626372115 C 46.736000000000004 29.96034913360282 47.104 29.96034913360282 47.84 29.96034913360282 C 48.576 29.96034913360282 48.944 29.57371027403726 49.68 29.57371027403726 C 50.416 29.57371027403726 50.784000000000006 30.090802200537258 51.52 30.228979462224395 C 52.25599999999999 30.36715672391153 52.624 30.36715672391153 53.36 30.36715672391153 C 54.096000000000004 30.36715672391153 54.46400000000001 29.382321892942656 55.2 28.88968991649287 C 55.936 28.39705794004308 56.303999999999995 28.263772668365988 57.04 27.90399684166259 C 57.775999999999996 27.54422101495919 58.144000000000005 27.333522146982833 58.88 27.09081078297587 C 59.61600000000001 26.8480994189689 59.984 26.840203575443926 60.72 26.690440021627744 C 61.455999999999996 26.540676467811565 61.824 26.341993013894964 62.56 26.341993013894964 C 63.29600000000001 26.341993013894964 63.66400000000001 26.44455315533355 64.4 26.44455315533355 C 65.136 26.44455315533355 65.50399999999999 26.04040612099522 66.24 25.891844108585012 C 66.976 25.743282096174806 67.34400000000001 25.891844108585012 68.08 25.70174309328252 C 68.816 25.511642077980028 69.184 24.89413561969498 69.92 24.872250401229003 C 70.65599999999999 24.850365182763028 71.024 24.872250401229003 71.76 24.850365182763028 C 72.49600000000001 24.828479964297053 72.864 24.193808628783785 73.6 24.10841336457341 C 74.33599999999998 24.023018100363032 74.704 24.058463571839297 75.44 24.023018100363032 C 76.176 23.987572628886767 76.54400000000001 23.93118600719208 77.28 23.93118600719208 C 78.016 23.93118600719208 78.384 24.494193980277558 79.12 24.564140854982533 C 79.856 24.634087729687508 80.224 24.634087729687508 80.96 24.634087729687508 C 81.696 24.634087729687508 82.064 24.634087729687508 82.8 24.610486023498712 C 83.53599999999999 24.586884317309917 83.904 24.207540530566355 84.64 24.207540530566355 C 85.376 24.207540530566355 85.744 24.837062402911165 86.48 24.837062402911165 C 87.216 24.837062402911165 87.58399999999999 24.716908262313652 88.32 24.716908262313652 C 89.056 24.716908262313652 89.424 25.62535938961696 90.16 25.62535938961696 C 90.896 25.62535938961696 91.264 25.27571084047821 92 24.719482993897884 C 92.736 24.163255147317557 93.104 23.487302282070427 93.84 22.844220156715323 C 94.576 22.20113803136023 94.944 21.504072367122394 95.68 21.504072367122394 C 96.41600000000001 21.504072367122394 96.784 22.758824892504954 97.52 22.758824892504954 C 98.256 22.758824892504954 98.624 22.6511152878979 99.36 22.49620227091325 C 100.096 22.341289253928604 100.46400000000001 22.29374254400645 101.2 21.984259807581722 C 101.936 21.674777071156992 102.304 20.94878858878961 103.04 20.94878858878961 C 103.776 20.94878858878961 104.144 21.56372031549044 104.88 21.56372031549044 C 105.61599999999999 21.56372031549044 105.984 20.809323961310362 106.72 20.809323961310362 C 107.45599999999999 20.809323961310362 107.824 20.919007526798662 108.56 21.252177793798328 C 109.296 21.585348060797994 109.66400000000002 22.47517529630869 110.4 22.47517529630869 C 111.13600000000001 22.47517529630869 111.50399999999999 21.816044010745212 112.24 21.659414506037745 C 112.976 21.502785001330277 113.34400000000001 21.659414506037745 114.08 21.502785001330277 C 114.816 21.34615549662281 115.184 20.56137730974879 115.92 20.071663362427792 C 116.65599999999999 19.581949415106806 117.024 19.644257919445227 117.76 19.05421526472532 C 118.49600000000001 18.464172610005406 118.86399999999999 18.060111400053216 119.6 17.121450088828237 C 120.33599999999998 16.182788777603275 120.704 15.289099444716218 121.44 14.360908708600459 C 122.176 13.4327179724847 122.54400000000001 13.497601208407351 123.28 12.480496408249444 C 124.016 11.463391608091516 124.38400000000001 10.252495344027045 125.12 9.275384707810868 C 125.856 8.298274071594692 126.224 7.594943227168564 126.96 7.594943227168564 C 127.696 7.594943227168564 128.06400000000002 8.333891191843248 128.8 8.696928345220009 C 129.536 9.059965498596767 129.904 8.860509625204898 130.64 9.41012899405236 C 131.37599999999998 9.959748362899823 131.74399999999997 11.44502518945733 132.48 11.44502518945733 C 133.21599999999998 11.44502518945733 133.584 10.999596625385129 134.32 10.747272930130361 C 135.05599999999998 10.494949234875591 135.424 10.354283065990366 136.16 10.183406713183484 C 136.89600000000002 10.012530360376594 137.26399999999998 10.183406713183484 138 9.892891166095936 C 138.73600000000002 9.602375619008388 139.10399999999998 8.32487963129844 139.84 8.32487963129844 C 140.576 8.32487963129844 140.94400000000002 9.03979676785362 141.68 9.03979676785362 C 142.416 9.03979676785362 142.78400000000002 8.22171871915685 143.52 7.382098749538699 C 144.25600000000003 6.542478779920514 144.62400000000002 5.440751135027497 145.36 4.841696919762775 C 146.096 4.242642704498053 146.464 4.54431542178394 147.2 4.242642704498053 C 147.93599999999998 3.940969987212165 148.304 3.3333333333333357 149.04 3.3333333333333357 C 149.776 3.3333333333333357 150.144 4.747633392552159 150.88 5.490958400920036 C 151.61599999999999 6.234283409287913 151.98399999999998 6.062720461391881 152.72 7.0499583751727215 C 153.456 8.037196288953526 153.824 9.595080546186399 154.56 10.427147969824148 C 155.296 11.259215393461897 155.66400000000002 11.259215393461897 156.4 11.259215393461897 C 157.13600000000002 11.259215393461897 157.504 11.128762326527447 158.24 11.128762326527447 C 158.97600000000003 11.128762326527447 159.344 13.639983865015399 160.08 13.639983865015399 C 160.81599999999997 13.639983865015399 161.18400000000003 13.171811838615824 161.92 13.171811838615824 C 162.656 13.171811838615824 163.02399999999997 14.881862732476806 163.76 15.71950874121373 C 164.496 16.55715474995065 164.86399999999998 17.310692860269327 165.6 17.36004188230044 C 166.33599999999998 17.409390904331552 166.704 17.36004188230044 167.44 17.409390904331552 C 168.176 17.458739926362664 168.544 18.990276097050216 169.28 18.990276097050216 C 170.01600000000002 18.990276097050216 170.38400000000001 18.017885802071792 171.12 18.017885802071792 C 171.856 18.017885802071792 172.224 18.46640404404506 172.96 18.92333307586017 C 173.696 19.380262107675264 174.06400000000002 20.302530961147294 174.8 20.302530961147294 C 175.536 20.302530961147294 175.904 18.89844400387925 176.64 18.622947724366394 C 177.37599999999998 18.34745144485354 177.74399999999997 18.424950865538932 178.48 18.34745144485354 C 179.21599999999998 18.26995202416815 179.584 18.235450620939435 180.32 18.235450620939435 C 181.05599999999998 18.235450620939435 181.424 18.50202116429363 182.16 18.964099659277185 C 182.89600000000002 19.426178154260757 183.26399999999998 18.964099659277185 184 20.545843095857254 C 184.73600000000002 22.127586532437324 185.10399999999998 36.1362719603148 185.84 36.1362719603148 C 186.576 36.1362719603148 186.94400000000002 35.61231408292353 187.68 35.50546272217788 C 188.416 35.39861136143223 188.78400000000002 35.46040491945381 189.52 35.39861136143223 C 190.25600000000003 35.33681780341065 190.62400000000002 35.35999038766875 191.36 35.196494932069996 C 192.096 35.03299947647125 192.464 34.78496700052352 193.2 34.581134083438464 C 193.93599999999998 34.377301166353405 194.304 34.336620407322535 195.04 34.177330346644695 C 195.776 34.018040285966855 196.144 33.927495558588014 196.88 33.784683780049264 C 197.61599999999999 33.64187200151051 197.98399999999998 33.57484315593433 198.72 33.463271453950924 C 199.456 33.35169975196752 199.824 33.256434683350925 200.56 33.22682527013225 C 201.296 33.19721585691358 201.66400000000002 33.19721585691358 202.4 33.19721585691358 C 203.13600000000002 33.19721585691358 203.504 33.594582764746775 204.24 33.594582764746775 C 204.97600000000003 33.594582764746775 205.344 33.16528918526911 206.08 32.97063947750114 C 206.81599999999997 32.77598976973319 207.18400000000003 32.62133422590695 207.92 32.62133422590695 C 208.656 32.62133422590695 209.02399999999997 32.86112756078513 209.76 33.0311456697306 C 210.496 33.201163778676076 210.86399999999998 33.47142477063433 211.6 33.47142477063433 C 212.33599999999996 33.47142477063433 212.704 33.41804200245458 213.44 33.12297776290155 C 214.176 32.82791352334852 214.544 32.31382545036347 215.28 31.996103572869195 C 216.016 31.678381695374924 216.38400000000001 31.78720701700181 217.12 31.53436837543019 C 217.856 31.281529733858573 218.224 31.133654316537505 218.96 30.731910365011114 C 219.696 30.330166413484736 220.06400000000002 29.52564861779826 220.8 29.52564861779826 C 221.536 29.52564861779826 221.904 29.718753486615686 222.64 29.88139069835303 C 223.37599999999998 30.04402791009037 223.74399999999997 30.33883467648498 224.48 30.33883467648498 C 225.21599999999998 30.33883467648498 225.584 30.123072169726303 226.32 29.866371430778337 C 227.05599999999998 29.609670691830374 227.42399999999998 29.05533098174515 228.16 29.05533098174515 C 228.89600000000002 29.05533098174515 229.26399999999998 29.75265411914141 230 29.856501626372115 C 230.73600000000002 29.96034913360282 231.10399999999998 29.96034913360282 231.84 29.96034913360282 C 232.57600000000002 29.96034913360282 232.94400000000002 29.57371027403726 233.68 29.57371027403726 C 234.416 29.57371027403726 234.78400000000002 30.090802200537258 235.52 30.228979462224395 C 236.25600000000003 30.36715672391153 236.62400000000002 30.36715672391153 237.36 30.36715672391153 C 238.096 30.36715672391153 238.464 29.38232189294266 239.2 28.88968991649287 C 239.93599999999998 28.397057940043084 240.304 28.26377266836598 241.04 27.90399684166259 C 241.776 27.544221014959184 242.144 27.333522146982833 242.88 27.09081078297587 C 243.61599999999999 26.8480994189689 243.984 26.840203575443926 244.72 26.690440021627744 C 245.456 26.540676467811565 245.824 26.341993013894964 246.56 26.341993013894964 C 247.296 26.341993013894964 247.66400000000004 26.44455315533355 248.4 26.44455315533355 C 249.13600000000002 26.44455315533355 249.504 26.04040612099522 250.24 25.891844108585012 C 250.97600000000003 25.743282096174806 251.344 25.891844108585012 252.08 25.70174309328252 C 252.81599999999997 25.511642077980028 253.18400000000003 24.89413561969498 253.92 24.872250401229003 C 254.656 24.850365182763028 255.02399999999997 24.872250401229003 255.76 24.850365182763028 C 256.496 24.828479964297053 256.86400000000003 24.193808628783785 257.6 24.10841336457341 C 258.336 24.023018100363032 258.704 24.058463571839297 259.44 24.023018100363032 C 260.176 23.987572628886767 260.544 23.93118600719208 261.28 23.93118600719208 C 262.01599999999996 23.93118600719208 262.384 24.494193980277558 263.12 24.564140854982533 C 263.856 24.634087729687508 264.224 24.634087729687508 264.96 24.634087729687508 C 265.696 24.634087729687508 266.064 24.634087729687508 266.8 24.610486023498712 C 267.536 24.586884317309917 267.904 24.207540530566355 268.64 24.207540530566355 C 269.37600000000003 24.207540530566355 269.744 24.837062402911165 270.48 24.837062402911165 C 271.216 24.837062402911165 271.584 24.716908262313652 272.32 24.716908262313652 C 273.05600000000004 24.716908262313652 273.424 25.62535938961696 274.16 25.62535938961696 C 274.896 25.62535938961696 275.264 25.27571084047821 276 24.719482993897884 C 276.736 24.163255147317557 277.104 23.4873022820704 277.84 22.844220156715323 C 278.576 22.201138031360202 278.94399999999996 21.504072367122394 279.68 21.504072367122394 C 280.416 21.504072367122394 280.784 22.758824892504954 281.52 22.758824892504954 C 282.256 22.758824892504954 282.62399999999997 22.651115287897905 283.36 22.49620227091325 C 284.096 22.34128925392861 284.464 22.293742544006452 285.2 21.984259807581722 C 285.936 21.674777071156996 286.304 20.94878858878961 287.04 20.94878858878961 C 287.776 20.94878858878961 288.144 21.56372031549044 288.88 21.56372031549044 C 289.616 21.56372031549044 289.98400000000004 20.809323961310362 290.72 20.809323961310362 C 291.456 20.809323961310362 291.824 20.919007526798662 292.56 21.252177793798328 C 293.296 21.585348060797994 293.664 22.47517529630869 294.4 22.47517529630869 C 295.13599999999997 22.47517529630869 295.504 21.816044010745212 296.24 21.659414506037745 C 296.976 21.502785001330277 297.344 21.659414506037745 298.08 21.502785001330277 C 298.816 21.34615549662281 299.184 20.561377309748785 299.92 20.071663362427792 C 300.656 19.581949415106802 301.024 19.644257919445227 301.76 19.05421526472532 C 302.496 18.464172610005406 302.86400000000003 18.060111400053206 303.6 17.121450088828237 C 304.336 16.182788777603264 304.704 15.289099444716218 305.44 14.360908708600459 C 306.176 13.4327179724847 306.544 13.497601208407362 307.28 12.480496408249444 C 308.01599999999996 11.463391608091527 308.384 10.252495344027045 309.12 9.275384707810868 C 309.856 8.298274071594692 310.224 7.594943227168564 310.96 7.594943227168564 C 311.696 7.594943227168564 312.064 8.333891191843248 312.8 8.696928345220009 C 313.536 9.059965498596767 313.904 8.86050962520492 314.64 9.41012899405236 C 315.37600000000003 9.959748362899845 315.744 11.44502518945733 316.48 11.44502518945733 C 317.216 11.44502518945733 317.584 10.99959662538512 318.32 10.747272930130361 C 319.05600000000004 10.494949234875582 319.424 10.354283065990376 320.16 10.183406713183484 C 320.896 10.012530360376605 321.264 10.183406713183484 322 9.892891166095936 C 322.736 9.602375619008388 323.104 8.32487963129844 323.84 8.32487963129844 C 324.576 8.32487963129844 324.94399999999996 9.03979676785362 325.68 9.03979676785362 C 326.416 9.03979676785362 326.784 8.221718719156868 327.52 7.382098749538699 C 328.256 6.54247877992053 328.62399999999997 5.440751135027497 329.36 4.841696919762775 C 330.096 4.242642704498053 330.464 4.54431542178394 331.2 4.242642704498053 C 331.936 3.940969987212165 332.304 3.3333333333333357 333.04 3.3333333333333357 C 333.776 3.3333333333333357 334.144 4.747633392552159 334.88 5.490958400920036 C 335.616 6.234283409287913 335.98400000000004 6.062720461391899 336.72 7.0499583751727215 C 337.456 8.037196288953544 337.824 9.595080546186399 338.56 10.427147969824148 C 339.296 11.259215393461897 339.664 11.259215393461897 340.4 11.259215393461897 C 341.13599999999997 11.259215393461897 341.504 11.128762326527447 342.24 11.128762326527447 C 342.976 11.128762326527447 343.344 13.639983865015399 344.08 13.639983865015399 C 344.816 13.639983865015399 345.184 13.171811838615824 345.92 13.171811838615824 C 346.656 13.171811838615824 347.024 14.881862732476806 347.76 15.71950874121373 C 348.496 16.55715474995065 348.86400000000003 17.310692860269327 349.6 17.36004188230044 C 350.33600000000007 17.409390904331552 350.704 17.36004188230044 351.44 17.409390904331552 C 352.176 17.458739926362664 352.544 18.990276097050216 353.28 18.990276097050216 C 354.01599999999996 18.990276097050216 354.384 18.017885802071792 355.12 18.017885802071792 C 355.85600000000005 18.017885802071792 356.224 18.466404044045085 356.96 18.92333307586017 C 357.696 19.38026210767529 358.064 20.302530961147294 358.8 20.302530961147294 C 359.536 20.302530961147294 359.904 18.89844400387925 360.64 18.622947724366394 C 361.37600000000003 18.34745144485354 361.744 18.424950865538932 362.48 18.34745144485354 C 363.216 18.26995202416815 363.584 18.235450620939435 364.32 18.235450620939435 C 365.05600000000004 18.235450620939435 365.424 18.502021164293602 366.16 18.964099659277185 C 366.896 19.42617815426073 367.264 18.964099659277185 368 20.545843095857254 C 368.736 22.127586532437324 369.104 36.1362719603148 369.84 36.1362719603148 C 370.576 36.1362719603148 370.94399999999996 35.61231408292353 371.68 35.50546272217788 C 372.416 35.39861136143223 372.784 35.46040491945381 373.52 35.39861136143223 C 374.256 35.33681780341065 374.62399999999997 35.35999038766875 375.36 35.196494932069996 C 376.096 35.03299947647125 376.464 34.78496700052352 377.2 34.581134083438464 C 377.936 34.377301166353405 378.304 34.33662040732254 379.04 34.177330346644695 C 379.776 34.01804028596686 380.14399999999995 33.92749555858802 380.88 33.784683780049264 C 381.616 33.641872001510514 381.98400000000004 33.574843155934325 382.72 33.463271453950924 C 383.456 33.351699751967516 383.824 33.256434683350925 384.56 33.22682527013225 C 385.296 33.19721585691358 385.66399999999993 33.19721585691358 386.4 33.19721585691358 C 387.13599999999997 33.19721585691358 387.504 33.594582764746775 388.24 33.594582764746775 C 388.976 33.594582764746775 389.344 33.165289185269096 390.08 32.97063947750114 C 390.816 32.77598976973317 391.184 32.62133422590695 391.92 32.62133422590695 C 392.656 32.62133422590695 393.024 32.86112756078513 393.76 33.0311456697306 C 394.496 33.201163778676076 394.86400000000003 33.47142477063433 395.6 33.47142477063433 C 396.33600000000007 33.47142477063433 396.704 33.41804200245458 397.44 33.12297776290155 C 398.176 32.82791352334852 398.544 32.31382545036347 399.28 31.996103572869195 C 400.01599999999996 31.678381695374924 400.384 31.787207017001798 401.12 31.53436837543019 C 401.85600000000005 31.281529733858562 402.224 31.133654316537484 402.96 30.731910365011114 C 403.696 30.330166413484715 404.064 29.52564861779826 404.8 29.52564861779826 C 405.536 29.52564861779826 405.904 29.718753486615693 406.64 29.88139069835303 C 407.37600000000003 30.044027910090378 407.744 30.33883467648498 408.48 30.33883467648498 C 409.216 30.33883467648498 409.584 30.123072169726292 410.32 29.866371430778337 C 411.05600000000004 29.609670691830363 411.424 29.05533098174515 412.16 29.05533098174515 C 412.896 29.05533098174515 413.264 29.75265411914141 414 29.856501626372115 C 414.736 29.96034913360282 415.104 29.96034913360282 415.84 29.96034913360282 C 416.576 29.96034913360282 416.94399999999996 29.57371027403726 417.68 29.57371027403726 C 418.416 29.57371027403726 418.784 30.090802200537258 419.52 30.228979462224395 C 420.256 30.36715672391153 420.62399999999997 30.36715672391153 421.36 30.36715672391153 C 422.096 30.36715672391153 422.46399999999994 29.382321892942677 423.2 28.88968991649287 C 423.936 28.3970579400431 424.304 28.263772668366002 425.04 27.90399684166259 C 425.776 27.544221014959206 426.14399999999995 27.333522146982844 426.88 27.09081078297587 C 427.616 26.84809941896891 427.98400000000004 26.840203575443926 428.72 26.690440021627744 C 429.456 26.540676467811565 429.82399999999996 26.341993013894964 430.56 26.341993013894964 C 431.296 26.341993013894964 431.66399999999993 26.44455315533355 432.4 26.44455315533355 C 433.13599999999997 26.44455315533355 433.504 26.04040612099522 434.24 25.891844108585012 C 434.976 25.743282096174806 435.34400000000005 25.891844108585012 436.08 25.70174309328252 C 436.816 25.511642077980028 437.184 24.89413561969498 437.92 24.872250401229003 C 438.65599999999995 24.850365182763028 439.024 24.872250401229003 439.76 24.850365182763028 C 440.496 24.828479964297053 440.86400000000003 24.193808628783785 441.6 24.10841336457341 C 442.33600000000007 24.023018100363032 442.704 24.058463571839297 443.44 24.023018100363032 C 444.17600000000004 23.987572628886767 444.544 23.93118600719208 445.28 23.93118600719208 C 446.01599999999996 23.93118600719208 446.384 24.494193980277558 447.12 24.564140854982533 C 447.85600000000005 24.634087729687508 448.224 24.634087729687508 448.96 24.634087729687508 C 449.696 24.634087729687508 450.064 24.634087729687508 450.8 24.610486023498712 C 451.53600000000006 24.586884317309917 451.904 24.207540530566355 452.64 24.207540530566355 C 453.37600000000003 24.207540530566355 453.744 24.837062402911165 454.48 24.837062402911165 C 455.216 24.837062402911165 455.584 24.716908262313652 456.32 24.716908262313652 C 457.05600000000004 24.716908262313652 457.424 25.62535938961696 458.16 25.62535938961696 C 458.896 25.62535938961696 459.264 25.27571084047821 460 24.719482993897884 C 460.736 24.163255147317557 461.104 23.4873022820704 461.84 22.844220156715323 C 462.576 22.201138031360202 462.94399999999996 21.504072367122394 463.68 21.504072367122394 C 464.416 21.504072367122394 464.784 22.758824892504954 465.52 22.758824892504954 C 466.256 22.758824892504954 466.62399999999997 22.651115287897905 467.36 22.49620227091325 C 468.096 22.34128925392861 468.46399999999994 22.293742544006463 469.2 21.984259807581722 C 469.936 21.674777071157006 470.304 20.94878858878961 471.04 20.94878858878961 C 471.776 20.94878858878961 472.14399999999995 21.56372031549044 472.88 21.56372031549044 C 473.616 21.56372031549044 473.98400000000004 20.809323961310362 474.72 20.809323961310362 C 475.456 20.809323961310362 475.82399999999996 20.919007526798648 476.56 21.252177793798328 C 477.296 21.58534806079798 477.66399999999993 22.47517529630869 478.4 22.47517529630869 C 479.13599999999997 22.47517529630869 479.504 21.816044010745212 480.24 21.659414506037745 C 480.976 21.502785001330277 481.34400000000005 21.659414506037745 482.08 21.502785001330277 C 482.816 21.34615549662281 483.184 20.561377309748803 483.92 20.071663362427792 C 484.65599999999995 19.58194941510682 485.024 19.644257919445227 485.76 19.05421526472532 C 486.496 18.464172610005406 486.86400000000003 18.06011140005317 487.6 17.121450088828237 C 488.33600000000007 16.18278877760323 488.704 15.289099444716182 489.44 14.360908708600459 C 490.17600000000004 13.432717972484664 490.544 13.497601208407362 491.28 12.480496408249444 C 492.01599999999996 11.463391608091527 492.384 10.252495344027007 493.12 9.275384707810868 C 493.85600000000005 8.298274071594655 494.224 7.594943227168564 494.96 7.594943227168564 C 495.696 7.594943227168564 496.064 8.333891191843263 496.8 8.696928345220009 C 497.53600000000006 9.059965498596782 497.904 8.86050962520492 498.64 9.41012899405236 C 499.37600000000003 9.959748362899845 499.744 11.44502518945733 500.48 11.44502518945733 C 501.216 11.44502518945733 501.584 10.99959662538512 502.32 10.747272930130361 C 503.05600000000004 10.494949234875582 503.424 10.354283065990376 504.16 10.183406713183484 C 504.896 10.012530360376605 505.264 10.183406713183484 506 9.892891166095936 C 506.736 9.602375619008388 507.104 8.32487963129844 507.84 8.32487963129844 C 508.576 8.32487963129844 508.94399999999996 9.03979676785362 509.68 9.03979676785362 C 510.416 9.03979676785362 510.784 8.221718719156868 511.52 7.382098749538699 C 512.256 6.54247877992053 512.624 5.440751135027497 513.36 4.841696919762775 C 514.096 4.242642704498053 514.464 4.54431542178394 515.2 4.242642704498053 C 515.936 3.940969987212165 516.304 3.3333333333333357 517.04 3.3333333333333357 C 517.7760000000001 3.3333333333333357 518.144 4.747633392552159 518.88 5.490958400920036 C 519.616 6.234283409287913 519.984 6.062720461391822 520.72 7.0499583751727215 C 521.4559999999999 8.037196288953467 521.824 9.595080546186399 522.56 10.427147969824148 C 523.2959999999999 11.259215393461897 523.664 11.259215393461897 524.4 11.259215393461897 C 525.136 11.259215393461897 525.504 11.128762326527447 526.24 11.128762326527447 C 526.976 11.128762326527447 527.344 13.639983865015399 528.08 13.639983865015399 C 528.816 13.639983865015399 529.184 13.171811838615824 529.92 13.171811838615824 C 530.656 13.171811838615824 531.024 14.881862732476806 531.76 15.71950874121373 C 532.496 16.55715474995065 532.864 17.310692860269327 533.6 17.36004188230044 C 534.336 17.409390904331552 534.7040000000001 17.36004188230044 535.44 17.409390904331552 C 536.176 17.458739926362664 536.5440000000001 18.990276097050216 537.28 18.990276097050216 C 538.016 18.990276097050216 538.384 18.017885802071792 539.12 18.017885802071792 C 539.856 18.017885802071792 540.2239999999999 18.466404044045035 540.96 18.92333307586017 C 541.696 19.38026210767524 542.064 20.302530961147294 542.8 20.302530961147294 C 543.536 20.302530961147294 543.904 18.89844400387925 544.64 18.622947724366394 C 545.376 18.34745144485354 545.744 18.424950865538932 546.48 18.34745144485354 C 547.216 18.26995202416815 547.5840000000001 18.235450620939435 548.32 18.235450620939435 C 549.0559999999999 18.235450620939435 549.424 18.502021164293623 550.16 18.964099659277185 C 550.896 19.42617815426075 552 20.545843095857254 552 20.545843095857254"
                  fill="none"></path>
        </g>
        <g clip-path="none" transform="translate(24,581) scale(1 1)" class="highcharts-markers highcharts-series-2"></g>
    </g>
    <g class="highcharts-navigator">
        <rect height="40" width="187" y="581" x="24" style="cursor:ew-resize;" fill="rgb(128,179,236)"
              fill-opacity="0.3"></rect>
        <path d="M 10 581.5 L 23.5 581.5 23.5 635.5 L 210.5 635.5 L 210.5 581.5 590 581.5 M 24.5 581.5 L 210.5 581.5"
              stroke-width="1" stroke="#b2b1b6" fill="none"></path>
    </g>
    <text y="22" style="color:#333333;font-size:16px;fill:#333333;width:536px;" class="highcharts-title"
          text-anchor="middle" x="300">
        <tspan>AAPL Stock Price Measures</tspan>
    </text>
    <g class="highcharts-axis-labels highcharts-xaxis-labels">
        <text opacity="1" y="555" transform="translate(0,0)" text-anchor="middle"
              style="color:#606060;cursor:default;font-size:11px;fill:#606060;" x="26.730769230769226">1000
        </text>
        <text opacity="1" y="555" transform="translate(0,0)" text-anchor="middle"
              style="color:#606060;cursor:default;font-size:11px;fill:#606060;" x="578">2000
        </text>
        <text opacity="1" y="555" transform="translate(0,0)" text-anchor="middle"
              style="color:#606060;cursor:default;font-size:11px;fill:#606060;" x="138.26923076923075">1200
        </text>
        <text opacity="1" y="555" transform="translate(0,0)" text-anchor="middle"
              style="color:#606060;cursor:default;font-size:11px;fill:#606060;" x="249.80769230769226">1400
        </text>
        <text opacity="1" y="555" transform="translate(0,0)" text-anchor="middle"
              style="color:#606060;cursor:default;font-size:11px;fill:#606060;" x="361.34615384615387">1600
        </text>
        <text opacity="1" y="555" transform="translate(0,0)" text-anchor="middle"
              style="color:#606060;cursor:default;font-size:11px;fill:#606060;" x="472.8846153846153">1800
        </text>
    </g>
    <g class="highcharts-axis-labels highcharts-xaxis-labels">
        <text opacity="1" y="617" transform="translate(0,0)" text-anchor="start"
              style="color:#888;cursor:default;font-size:11px;fill:#888;width:280px;text-overflow:clip;"
              x="28.83051995452797">1000
        </text>
        <text opacity="1" y="617" transform="translate(0,0)" text-anchor="start"
              style="color:#888;cursor:default;font-size:11px;fill:#888;width:280px;text-overflow:clip;"
              x="211.8870858498215">2000
        </text>
        <text opacity="1" y="617" transform="translate(0,0)" text-anchor="start"
              style="color:#888;cursor:default;font-size:11px;fill:#888;width:280px;text-overflow:clip;"
              x="395.88708584982146">3000
        </text>
    </g>
    <g class="highcharts-axis-labels highcharts-yaxis-labels">
        <text opacity="1" y="534" transform="translate(0,0)" text-anchor="end"
              style="color:#606060;cursor:default;font-size:11px;fill:#606060;width:188px;text-overflow:clip;" x="590">
            10
        </text>
        <text opacity="1" y="488" transform="translate(0,0)" text-anchor="end"
              style="color:#606060;cursor:default;font-size:11px;fill:#606060;width:188px;text-overflow:clip;" x="590">
            20
        </text>
        <text opacity="1" y="442" transform="translate(0,0)" text-anchor="end"
              style="color:#606060;cursor:default;font-size:11px;fill:#606060;width:188px;text-overflow:clip;" x="590">
            30
        </text>
        <text opacity="1" y="396" transform="translate(0,0)" text-anchor="end"
              style="color:#606060;cursor:default;font-size:11px;fill:#606060;width:188px;text-overflow:clip;" x="590">
            40
        </text>
        <text opacity="1" y="350" transform="translate(0,0)" text-anchor="end"
              style="color:#606060;cursor:default;font-size:11px;fill:#606060;width:188px;text-overflow:clip;" x="590">
            50
        </text>
        <text opacity="1" y="305" transform="translate(0,0)" text-anchor="end"
              style="color:#606060;cursor:default;font-size:11px;fill:#606060;width:188px;text-overflow:clip;" x="590">
            60
        </text>
        <text opacity="1" y="259" transform="translate(0,0)" text-anchor="end"
              style="color:#606060;cursor:default;font-size:11px;fill:#606060;width:188px;text-overflow:clip;" x="590">
            70
        </text>
        <text opacity="1" y="213" transform="translate(0,0)" text-anchor="end"
              style="color:#606060;cursor:default;font-size:11px;fill:#606060;width:188px;text-overflow:clip;" x="590">
            80
        </text>
        <text opacity="1" y="167" transform="translate(0,0)" text-anchor="end"
              style="color:#606060;cursor:default;font-size:11px;fill:#606060;width:188px;text-overflow:clip;" x="590">
            90
        </text>
        <text opacity="1" y="121" transform="translate(0,0)" text-anchor="end"
              style="color:#606060;cursor:default;font-size:11px;fill:#606060;width:188px;text-overflow:clip;" x="590">
            100
        </text>
        <text y="-9999" transform="translate(0,0)" text-anchor="end"
              style="color:#606060;cursor:default;font-size:11px;fill:#606060;width:188px;text-overflow:clip;" x="0">110
        </text>
    </g>
    <g class="highcharts-axis-labels highcharts-yaxis-labels"></g>
    <g transform="translate(0,-9999)" style="cursor:default;padding:0;pointer-events:none;white-space:nowrap;"
       class="highcharts-tooltip">
        <path transform="translate(1, 1)" stroke-width="5" stroke-opacity="0.049999999999999996" stroke="black"
              d="M 3.5 0.5 L 13.5 0.5 C 16.5 0.5 16.5 0.5 16.5 3.5 L 16.5 13.5 C 16.5 16.5 16.5 16.5 13.5 16.5 L 3.5 16.5 C 0.5 16.5 0.5 16.5 0.5 13.5 L 0.5 3.5 C 0.5 0.5 0.5 0.5 3.5 0.5"
              fill="none"></path>
        <path transform="translate(1, 1)" stroke-width="3" stroke-opacity="0.09999999999999999" stroke="black"
              d="M 3.5 0.5 L 13.5 0.5 C 16.5 0.5 16.5 0.5 16.5 3.5 L 16.5 13.5 C 16.5 16.5 16.5 16.5 13.5 16.5 L 3.5 16.5 C 0.5 16.5 0.5 16.5 0.5 13.5 L 0.5 3.5 C 0.5 0.5 0.5 0.5 3.5 0.5"
              fill="none"></path>
        <path transform="translate(1, 1)" stroke-width="1" stroke-opacity="0.15" stroke="black"
              d="M 3.5 0.5 L 13.5 0.5 C 16.5 0.5 16.5 0.5 16.5 3.5 L 16.5 13.5 C 16.5 16.5 16.5 16.5 13.5 16.5 L 3.5 16.5 C 0.5 16.5 0.5 16.5 0.5 13.5 L 0.5 3.5 C 0.5 0.5 0.5 0.5 3.5 0.5"
              fill="none"></path>
        <path d="M 3.5 0.5 L 13.5 0.5 C 16.5 0.5 16.5 0.5 16.5 3.5 L 16.5 13.5 C 16.5 16.5 16.5 16.5 13.5 16.5 L 3.5 16.5 C 0.5 16.5 0.5 16.5 0.5 13.5 L 0.5 3.5 C 0.5 0.5 0.5 0.5 3.5 0.5"
              fill="rgb(249, 249, 249)" fill-opacity=" .85"></path>
        <text y="20" style="font-size:12px;color:#333333;fill:#333333;" x="8"></text>
    </g>
    <text y="645" style="cursor:pointer;color:#909090;font-size:9px;fill:#909090;" text-anchor="end" x="590">
        Highcharts.com
    </text>
    <g transform="translate(211,593)" style="cursor:ew-resize;" class="highcharts-navigator-handle-right">
        <rect stroke-width="1" stroke="#b2b1b6" fill="#ebe7e8" height="15" width="8" y="0.5" x="-4.5"></rect>
        <path stroke-width="1" stroke="#b2b1b6" d="M -1.5 4 L -1.5 12 M 0.5 4 L 0.5 12" fill="#ebe7e8"></path>
    </g>
    <g transform="translate(24,593)" style="cursor:ew-resize;" class="highcharts-navigator-handle-left">
        <rect stroke-width="1" stroke="#b2b1b6" fill="#ebe7e8" height="15" width="8" y="0.5" x="-4.5"></rect>
        <path stroke-width="1" stroke="#b2b1b6" d="M -1.5 4 L -1.5 12 M 0.5 4 L 0.5 12" fill="#ebe7e8"></path>
    </g>
</svg>